STARTFONT 2.1
COMMENT
COMMENT Converted from OpenType font "corona.ttf" by "otf2bdf 3.0".
COMMENT
FONT -FreeType-Corona PPC 400-Medium-R-Normal--64-640-72-72-P-254-ISO10646-1
SIZE 64 72 72
FONTBOUNDINGBOX 35 68 0 -17
STARTPROPERTIES 19
FOUNDRY "FreeType"
FAMILY_NAME "Corona PPC 400"
WEIGHT_NAME "Medium"
SLANT "R"
SETWIDTH_NAME "Normal"
ADD_STYLE_NAME ""
PIXEL_SIZE 64
POINT_SIZE 640
RESOLUTION_X 72
RESOLUTION_Y 72
SPACING "P"
AVERAGE_WIDTH 254
CHARSET_REGISTRY "ISO10646"
CHARSET_ENCODING "1"
FONT_ASCENT 51
FONT_DESCENT 17
COPYRIGHT "Copyright Lord Nightmare 2020"
_OTF_FONTFILE "corona.ttf"
_OTF_PSNAME "CoronaPPC-400"
ENDPROPERTIES
CHARS 254
STARTCHAR 0020
ENCODING 32
SWIDTH 531 0
DWIDTH 34 0
BBX 0 0 0 0
BITMAP
ENDCHAR
STARTCHAR 0021
ENCODING 33
SWIDTH 546 0
DWIDTH 35 0
BBX 9 47 13 0
BITMAP
3C00
3C00
3C00
3C00
FF80
FF80
FF80
FF80
FF80
FF80
FF80
FF80
FF80
FF80
FF80
FF80
FF80
FF80
FF80
FF80
FF80
3C00
3C00
3C00
3C00
3C00
3C00
3C00
3C00
3C00
3C00
3C00
3C00
3C00
0000
0000
0000
0000
3C00
3C00
3C00
3C00
3C00
3C00
3C00
3C00
3C00
ENDCHAR
STARTCHAR 0022
ENCODING 34
SWIDTH 515 0
DWIDTH 33 0
BBX 21 18 6 29
BITMAP
FC01F8
FC01F8
FC01F8
FC01F8
FC01F8
FC01F8
FC01F8
FC01F8
FC01F8
3C01E0
3C01E0
3C01E0
3C01E0
3C01E0
3C01E0
3C01E0
3C01E0
3C01E0
ENDCHAR
STARTCHAR 0023
ENCODING 35
SWIDTH 531 0
DWIDTH 34 0
BBX 34 47 0 0
BITMAP
00000783C0
00000783C0
00000783C0
00000783C0
00001E0F00
00001E0F00
00001E0F00
00001E0F00
0000783C00
0000783C00
0000783C00
0000783C00
0000783C00
007FFFFF00
007FFFFF00
007FFFFF00
007FFFFF00
0007878000
0007878000
0007878000
0007878000
0007878000
001E1E0000
001E1E0000
001E1E0000
0078780000
0078780000
0078780000
0078780000
0078780000
3FFFFF8000
3FFFFF8000
3FFFFF8000
3FFFFF8000
0F07800000
0F07800000
0F07800000
0F07800000
3F1F800000
3C1E000000
3C1E000000
3C1E000000
3C1E000000
F078000000
F078000000
F078000000
F078000000
ENDCHAR
STARTCHAR 0024
ENCODING 36
SWIDTH 531 0
DWIDTH 34 0
BBX 30 47 2 0
BITMAP
00078000
00078000
00078000
00078000
00078000
03FFFE00
03FFFE00
03FFFE00
03FFFE00
3F0783FC
3F0783FC
3F0783FC
3F0783FC
FC078000
FC078000
FC078000
FC078000
3F078000
3F078000
3F078000
3F078000
00078000
00FFFE00
00FFFE00
00FFFE00
000783F0
000783F0
000783F0
000783F0
000783F0
000780FC
000780FC
000780FC
000780FC
FF0783F0
FF0783F0
FF0783F0
FF0783F0
03078200
03FFFE00
03FFFE00
03FFFE00
03FFFE00
00078000
00078000
00078000
00078000
ENDCHAR
STARTCHAR 0025
ENCODING 37
SWIDTH 531 0
DWIDTH 34 0
BBX 30 55 2 -4
BITMAP
0000003C
0000003C
0000003C
0000003C
0007FFF0
0007FFF0
0007FFF0
0007FFF0
00060780
3FFE0780
3FFE0780
3FFE0780
3FFE0780
F0781E00
F0781E00
F0781E00
F0781E00
F0787800
F0787800
F0787800
F0787800
3FE1E000
3FE1E000
3FE1E000
3FE1E000
3FE7E000
00078000
00078000
00078000
00078000
001E1FF0
001E1FF0
001E1FF0
001E1FF0
0078783C
0078783C
0078783C
01E0783C
01E0783C
01E0783C
01E0783C
01E0783C
0F001FF0
0F001FF0
0F001FF0
0F001FF0
3C000000
3C000000
3C000000
3C000000
3C000000
F0000000
F0000000
F0000000
F0000000
ENDCHAR
STARTCHAR 0026
ENCODING 38
SWIDTH 531 0
DWIDTH 34 0
BBX 30 47 2 0
BITMAP
03FFE000
03FFE000
03FFE000
03FFE000
0F007800
0F007800
0F007800
0F007800
0F007800
0F007800
0F007800
0F007800
0F007800
0F07E000
0F07E000
0F07E000
0F07E000
03FE003C
03FE003C
03FE003C
03FE003C
03FE003C
0FF807FC
0FF807FC
0FF807FC
0FF807FC
3C1E1E00
3C1E1E00
3C1E1E00
3C1E1E00
F001E000
F001E000
F001E000
F001E000
F001E000
F001E000
F001E000
F001E000
F001F83C
F001F83C
F001F83C
F001F83C
F001F83C
3FFE1FFC
3FFE1FFC
3FFE1FFC
3FFE1FFC
ENDCHAR
STARTCHAR 0027
ENCODING 39
SWIDTH 531 0
DWIDTH 34 0
BBX 9 17 13 30
BITMAP
3F80
3F80
3F80
3F80
3F80
3F80
3F80
3F80
3F80
3C00
3C00
3C00
3C00
F000
F000
F000
F000
ENDCHAR
STARTCHAR 0028
ENCODING 40
SWIDTH 546 0
DWIDTH 35 0
BBX 13 55 11 -8
BITMAP
0078
0078
0078
0078
01E0
01E0
01E0
01E0
01E0
0F00
0F00
0F00
0F00
3C00
3C00
3C00
3C00
F000
F000
F000
F000
F000
F000
F000
F000
F000
F000
F000
F000
F000
F000
F000
F000
F000
F000
F000
F000
F000
3C00
3C00
3C00
3C00
3C00
0F00
0F00
0F00
0F00
01E0
01E0
01E0
01E0
0078
0078
0078
0078
ENDCHAR
STARTCHAR 0029
ENCODING 41
SWIDTH 546 0
DWIDTH 35 0
BBX 13 55 11 -8
BITMAP
F000
F000
F000
F000
3C00
3C00
3C00
3C00
3C00
0F00
0F00
0F00
0F00
01E0
01E0
01E0
01E0
0078
0078
0078
0078
0078
0078
0078
0078
0078
0078
0078
0078
0078
0078
0078
0078
0078
0078
0078
0078
0078
01E0
01E0
01E0
01E0
01E0
0F00
0F00
0F00
0F00
3C00
3C00
3C00
3C00
F000
F000
F000
F000
ENDCHAR
STARTCHAR 002A
ENCODING 42
SWIDTH 546 0
DWIDTH 35 0
BBX 31 29 2 13
BITMAP
01E00F00
01E00F00
01E00F00
01E00F00
00783C00
00783C00
00783C00
00783C00
001FF000
001FF000
001FF000
001FF000
001FF000
FFFFFFFE
FFFFFFFE
FFFFFFFE
FFFFFFFE
001FF000
001FF000
001FF000
001FF000
00783C00
00783C00
00783C00
00783C00
01E00F00
01E00F00
01E00F00
01E00F00
ENDCHAR
STARTCHAR 002B
ENCODING 43
SWIDTH 531 0
DWIDTH 34 0
BBX 30 30 2 8
BITMAP
00078000
00078000
00078000
00078000
00078000
00078000
00078000
00078000
00078000
00078000
00078000
00078000
00078000
FFFFFFFC
FFFFFFFC
FFFFFFFC
FFFFFFFC
00078000
00078000
00078000
00078000
00078000
00078000
00078000
00078000
00078000
00078000
00078000
00078000
00078000
ENDCHAR
STARTCHAR 002C
ENCODING 44
SWIDTH 546 0
DWIDTH 35 0
BBX 11 22 11 -13
BITMAP
3FE0
3FE0
3FE0
3FE0
3FE0
3FE0
3FE0
3FE0
3FE0
0F00
0F00
0F00
0F00
3C00
3C00
3C00
3C00
3C00
F000
F000
F000
F000
ENDCHAR
STARTCHAR 002D
ENCODING 45
SWIDTH 531 0
DWIDTH 34 0
BBX 26 4 4 17
BITMAP
FFFFFFC0
FFFFFFC0
FFFFFFC0
FFFFFFC0
ENDCHAR
STARTCHAR 002E
ENCODING 46
SWIDTH 546 0
DWIDTH 35 0
BBX 9 9 13 0
BITMAP
FF80
FF80
FF80
FF80
FF80
FF80
FF80
FF80
FF80
ENDCHAR
STARTCHAR 002F
ENCODING 47
SWIDTH 531 0
DWIDTH 34 0
BBX 30 55 2 -4
BITMAP
0000003C
0000003C
0000003C
0000003C
000000F0
000000F0
000000F0
000000F0
00000780
00000780
00000780
00000780
00000780
00001E00
00001E00
00001E00
00001E00
00007800
00007800
00007800
00007800
0001E000
0001E000
0001E000
0001E000
0007E000
00078000
00078000
00078000
00078000
001E0000
001E0000
001E0000
001E0000
00780000
00780000
00780000
00780000
01E00000
01E00000
01E00000
01E00000
0F000000
0F000000
0F000000
0F000000
0F000000
3C000000
3C000000
3C000000
3C000000
F0000000
F0000000
F0000000
F0000000
ENDCHAR
STARTCHAR 0030
ENCODING 48
SWIDTH 531 0
DWIDTH 34 0
BBX 28 51 2 0
BITMAP
000000F0
000000F0
000000F0
000000F0
007FFF80
007FFF80
007FFF80
007FFF80
00401F80
0FC01F80
0FC01F80
0FC01F80
0FC01F80
3C0078F0
3C0078F0
3C0078F0
3C0078F0
3C01E0F0
3C01E0F0
3C01E0F0
3C01E0F0
3C0780F0
3C0780F0
3C0780F0
3C0780F0
3C1F80F0
3C1E00F0
3C1E00F0
3C1E00F0
3C1E00F0
3C7800F0
3C7800F0
3C7800F0
3C7800F0
3FC000F0
3FC000F0
3FC000F0
3FC000F0
3FC000F0
3F8000F0
3F8000F0
3F8000F0
3F8000F0
3FC01F80
3FC01F80
3FC01F80
3FC01F80
F07FF800
F07FF800
F07FF800
F07FF800
ENDCHAR
STARTCHAR 0031
ENCODING 49
SWIDTH 531 0
DWIDTH 34 0
BBX 11 47 9 0
BITMAP
0FE0
0FE0
0FE0
0FE0
3FE0
3FE0
3FE0
3FE0
3FE0
F1E0
F1E0
F1E0
F1E0
01E0
01E0
01E0
01E0
01E0
01E0
01E0
01E0
01E0
01E0
01E0
01E0
01E0
01E0
01E0
01E0
01E0
01E0
01E0
01E0
01E0
01E0
01E0
01E0
01E0
01E0
01E0
01E0
01E0
01E0
01E0
01E0
01E0
01E0
ENDCHAR
STARTCHAR 0032
ENCODING 50
SWIDTH 531 0
DWIDTH 34 0
BBX 25 47 4 0
BITMAP
01FFE000
01FFE000
01FFE000
01FFE000
01006000
3F007E00
3F007E00
3F007E00
3F007E00
FC000780
FC000780
FC000780
FC000780
00000780
00000780
00000780
00000780
00001E00
00001E00
00001E00
00001E00
00000000
0001E000
0001E000
0001E000
0001E000
001E0000
001E0000
001E0000
001E0000
01E00000
01E00000
01E00000
01E00000
3C000780
3C000780
3C000780
3C000780
F0000780
F0000780
F0000780
F0000780
F0000780
FFFFFF80
FFFFFF80
FFFFFF80
FFFFFF80
ENDCHAR
STARTCHAR 0033
ENCODING 51
SWIDTH 531 0
DWIDTH 34 0
BBX 28 51 2 -4
BITMAP
3FFFFFF0
3FFFFFF0
3FFFFFF0
3FFFFFF0
3C001F80
3C001F80
3C001F80
3C001F80
3C001F80
0000FC00
0000FC00
0000FC00
0000FC00
001F8000
001F8000
001F8000
001F8000
03FFFC00
03FFFC00
03FFFC00
03FFFC00
00001F80
00001F80
00001F80
00001F80
00001F80
000003F0
000003F0
000003F0
000003F0
000003F0
000003F0
000003F0
000003F0
00001F80
00001F80
00001F80
00001F80
00001C00
0007FC00
0007FC00
0007FC00
0007FC00
03FE0000
03FE0000
03FE0000
03FE0000
FF800000
FF800000
FF800000
FF800000
ENDCHAR
STARTCHAR 0034
ENCODING 52
SWIDTH 531 0
DWIDTH 34 0
BBX 28 52 2 -5
BITMAP
0001F800
0001F800
0001F800
0001F800
0001F800
0007F800
0007F800
0007F800
0007F800
001E7800
001E7800
001E7800
001E7800
00787800
00787800
00787800
00787800
00787800
03C07800
03C07800
03C07800
03C07800
0F007800
0F007800
0F007800
0F007800
3C007800
3C007800
3C007800
3C007800
3C007800
FFFFFFF0
FFFFFFF0
FFFFFFF0
FFFFFFF0
00007800
00007800
00007800
00007800
00007800
00007800
00007800
00007800
00007800
00007800
00007800
00007800
00007800
00007800
00007800
00007800
00007800
ENDCHAR
STARTCHAR 0035
ENCODING 53
SWIDTH 531 0
DWIDTH 34 0
BBX 28 51 2 -4
BITMAP
3FFFFFF0
3FFFFFF0
3FFFFFF0
3FFFFFF0
3C000000
3C000000
3C000000
3C000000
3C000000
3C000000
3C000000
3C000000
3C000000
3C000000
3C000000
3C000000
3C000000
3FFFFC00
3FFFFC00
3FFFFC00
3FFFFC00
3F801F80
3F801F80
3F801F80
3F801F80
3F801F80
000003F0
000003F0
000003F0
000003F0
000003F0
000003F0
000003F0
000003F0
00001F80
00001F80
00001F80
00001F80
00001C00
0007FC00
0007FC00
0007FC00
0007FC00
03FE0000
03FE0000
03FE0000
03FE0000
FF800000
FF800000
FF800000
FF800000
ENDCHAR
STARTCHAR 0036
ENCODING 54
SWIDTH 531 0
DWIDTH 34 0
BBX 25 51 4 0
BITMAP
0007FC00
0007FC00
0007FC00
0007FC00
007E0000
007E0000
007E0000
007E0000
0FC00000
0FC00000
0FC00000
0FC00000
0FC00000
3F000000
3F000000
3F000000
3F000000
FE000000
FE000000
FE000000
FE000000
FFFFE000
FFFFE000
FFFFE000
FFFFE000
FE006000
FE007E00
FE007E00
FE007E00
FE007E00
F0000380
F0000380
F0000380
F0000380
F0000380
F0000380
F0000380
F0000380
F0000380
F0000380
F0000380
F0000380
F0000380
3F007E00
3F007E00
3F007E00
3F007E00
01FFE000
01FFE000
01FFE000
01FFE000
ENDCHAR
STARTCHAR 0037
ENCODING 55
SWIDTH 531 0
DWIDTH 34 0
BBX 25 47 4 0
BITMAP
FFFFFF80
FFFFFF80
FFFFFF80
FFFFFF80
F0000780
F0000780
F0000780
F0000780
F0000780
00000780
00000780
00000780
00000780
00001E00
00001E00
00001E00
00001E00
00007800
00007800
00007800
00007800
0001F800
0001E000
0001E000
0001E000
0001E000
00078000
00078000
00078000
00078000
001E0000
001E0000
001E0000
001E0000
001E0000
001E0000
001E0000
001E0000
001E0000
001E0000
001E0000
001E0000
001E0000
001E0000
001E0000
001E0000
001E0000
ENDCHAR
STARTCHAR 0038
ENCODING 56
SWIDTH 531 0
DWIDTH 34 0
BBX 25 47 4 0
BITMAP
03FFE000
03FFE000
03FFE000
03FFE000
00000000
3C001E00
3C001E00
3C001E00
3C001E00
F0000380
F0000380
F0000380
F0000380
F0000380
F0000380
F0000380
F0000380
3C001E00
3C001E00
3C001E00
3C001E00
3C001E00
0FFFFC00
0FFFFC00
0FFFFC00
0FFFFC00
3C001E00
3C001E00
3C001E00
3C001E00
F0000380
F0000380
F0000380
F0000380
F0000380
F0000380
F0000380
F0000380
F0000380
3C001E00
3C001E00
3C001E00
3C001E00
03FFE000
03FFE000
03FFE000
03FFE000
ENDCHAR
STARTCHAR 0039
ENCODING 57
SWIDTH 531 0
DWIDTH 34 0
BBX 25 51 4 -4
BITMAP
03FFE000
03FFE000
03FFE000
03FFE000
03006000
3F007E00
3F007E00
3F007E00
3F007E00
F0000780
F0000780
F0000780
F0000780
F0000780
F0000780
F0000780
F0000780
F0000780
F0000780
F0000780
F0000780
F0000780
3F001F80
3F001F80
3F001F80
3F001F80
03FFFF80
03FFFF80
03FFFF80
03FFFF80
00001F80
00001F80
00001F80
00001F80
00007E00
00007E00
00007E00
00007E00
0001F800
0001F800
0001F800
0001F800
0001F800
001F8000
001F8000
001F8000
001F8000
0FF80000
0FF80000
0FF80000
0FF80000
ENDCHAR
STARTCHAR 003A
ENCODING 58
SWIDTH 546 0
DWIDTH 35 0
BBX 9 30 13 0
BITMAP
FF80
FF80
FF80
FF80
FF80
FF80
FF80
FF80
FF80
0000
0000
0000
0000
0000
0000
0000
0000
0000
0000
0000
0000
FF80
FF80
FF80
FF80
FF80
FF80
FF80
FF80
FF80
ENDCHAR
STARTCHAR 003B
ENCODING 59
SWIDTH 546 0
DWIDTH 35 0
BBX 11 43 11 -13
BITMAP
3FE0
3FE0
3FE0
3FE0
3FE0
3FE0
3FE0
3FE0
3FE0
0000
0000
0000
0000
0000
0000
0000
0000
0000
0000
0000
0000
3FE0
3FE0
3FE0
3FE0
3FE0
3FE0
3FE0
3FE0
3FE0
0F00
0F00
0F00
0F00
3C00
3C00
3C00
3C00
3C00
F000
F000
F000
F000
ENDCHAR
STARTCHAR 003C
ENCODING 60
SWIDTH 531 0
DWIDTH 34 0
BBX 26 47 4 0
BITMAP
000007C0
000007C0
000007C0
000007C0
00000000
00003C00
00003C00
00003C00
00003C00
00078000
00078000
00078000
00078000
00780000
00780000
00780000
00780000
0F000000
0F000000
0F000000
0F000000
00000000
F0000000
F0000000
F0000000
F0000000
0F000000
0F000000
0F000000
0F000000
00780000
00780000
00780000
00780000
00078000
00078000
00078000
00078000
00000000
00003C00
00003C00
00003C00
00003C00
000007C0
000007C0
000007C0
000007C0
ENDCHAR
STARTCHAR 003D
ENCODING 61
SWIDTH 531 0
DWIDTH 34 0
BBX 26 17 4 13
BITMAP
FFFFFFC0
FFFFFFC0
FFFFFFC0
FFFFFFC0
00000000
00000000
00000000
00000000
00000000
00000000
00000000
00000000
00000000
FFFFFFC0
FFFFFFC0
FFFFFFC0
FFFFFFC0
ENDCHAR
STARTCHAR 003E
ENCODING 62
SWIDTH 531 0
DWIDTH 34 0
BBX 26 47 4 0
BITMAP
F0000000
F0000000
F0000000
F0000000
00000000
0F000000
0F000000
0F000000
0F000000
00780000
00780000
00780000
00780000
00078000
00078000
00078000
00078000
00003C00
00003C00
00003C00
00003C00
00000000
000007C0
000007C0
000007C0
000007C0
00003C00
00003C00
00003C00
00003C00
00078000
00078000
00078000
00078000
00780000
00780000
00780000
00780000
00000000
0F000000
0F000000
0F000000
0F000000
F0000000
F0000000
F0000000
F0000000
ENDCHAR
STARTCHAR 003F
ENCODING 63
SWIDTH 531 0
DWIDTH 34 0
BBX 28 47 4 0
BITMAP
0FFFFC00
0FFFFC00
0FFFFC00
0FFFFC00
FC001F80
FC001F80
FC001F80
FC001F80
FC001F80
FC0003F0
FC0003F0
FC0003F0
FC0003F0
00000380
00000380
00000380
00000380
00001E00
00001E00
00001E00
00001E00
00000000
0001E000
0001E000
0001E000
0001E000
001E0000
001E0000
001E0000
001E0000
001E0000
001E0000
001E0000
001E0000
001E0000
00000000
00000000
00000000
001E0000
001E0000
001E0000
001E0000
001E0000
001E0000
001E0000
001E0000
001E0000
ENDCHAR
STARTCHAR 0040
ENCODING 64
SWIDTH 515 0
DWIDTH 33 0
BBX 25 47 4 0
BITMAP
01FFE000
01FFE000
01FFE000
01FFE000
3F003F00
3F003F00
3F003F00
3F003F00
3E000700
FE000780
FE000780
FE000780
FE000780
F01FFF80
F01FFF80
F01FFF80
F01FFF80
F0780780
F0780780
F0780780
F0780780
F0780780
F0780780
F0780780
F0780780
F0780780
F0780780
F0780780
F0780780
F0780780
F01FFF00
F01FFF00
F01FFF00
F01FFF00
F0000000
F0000000
F0000000
F0000000
F0000000
3F001F80
3F001F80
3F001F80
3F001F80
01FFFF00
01FFFF00
01FFFF00
01FFFF00
ENDCHAR
STARTCHAR 0041
ENCODING 65
SWIDTH 531 0
DWIDTH 34 0
BBX 30 47 2 0
BITMAP
01FFC000
01FFC000
01FFC000
01FFC000
001FE000
001FE000
001FE000
001FE000
001FE000
00783800
00783800
00783800
00783800
00783800
00783800
00783800
00783800
01E01E00
01E01E00
01E01E00
01E01E00
01E01E00
01E01E00
01E01E00
01E01E00
01E01E00
0F000780
0F000780
0F000780
0F000780
0FFFFF80
0FFFFF80
0FFFFF80
0FFFFF80
3C0000F0
3C0000F0
3C0000F0
3C0000F0
3C0000F0
3C0000F0
3C0000F0
3C0000F0
3C0000F0
FF0007FC
FF0007FC
FF0007FC
FF0007FC
ENDCHAR
STARTCHAR 0042
ENCODING 66
SWIDTH 531 0
DWIDTH 34 0
BBX 27 47 2 0
BITMAP
FFFFFF00
FFFFFF00
FFFFFF00
FFFFFF00
0F000780
0F000780
0F000780
0F000780
0F000780
0F0000E0
0F0000E0
0F0000E0
0F0000E0
0F0000E0
0F0000E0
0F0000E0
0F0000E0
0F000780
0F000780
0F000780
0F000780
0F000700
0FFFFF00
0FFFFF00
0FFFFF00
0FFFFF00
0F000780
0F000780
0F000780
0F000780
0F0000E0
0F0000E0
0F0000E0
0F0000E0
0F0000E0
0F0000E0
0F0000E0
0F0000E0
0F0007E0
0F000780
0F000780
0F000780
0F000780
FFFFFF00
FFFFFF00
FFFFFF00
FFFFFF00
ENDCHAR
STARTCHAR 0043
ENCODING 67
SWIDTH 531 0
DWIDTH 34 0
BBX 28 47 4 0
BITMAP
00FFFFF0
00FFFFF0
00FFFFF0
00FFFFF0
00C000F0
0FC000F0
0FC000F0
0FC000F0
0FC000F0
3C0000F0
3C0000F0
3C0000F0
3C0000F0
F0000000
F0000000
F0000000
F0000000
F0000000
F0000000
F0000000
F0000000
F0000000
F0000000
F0000000
F0000000
F0000000
F0000000
F0000000
F0000000
F0000000
F00000F0
F00000F0
F00000F0
F00000F0
3C0000F0
3C0000F0
3C0000F0
3C0000F0
3C0000F0
0FC00780
0FC00780
0FC00780
0FC00780
00FFFE00
00FFFE00
00FFFE00
00FFFE00
ENDCHAR
STARTCHAR 0044
ENCODING 68
SWIDTH 531 0
DWIDTH 34 0
BBX 27 47 2 0
BITMAP
FFFFE000
FFFFE000
FFFFE000
FFFFE000
0F006000
0F007E00
0F007E00
0F007E00
0F007E00
0F000780
0F000780
0F000780
0F000780
0F0001E0
0F0001E0
0F0001E0
0F0001E0
0F0001E0
0F0001E0
0F0001E0
0F0001E0
0F0001E0
0F0001E0
0F0001E0
0F0001E0
0F0001E0
0F0001E0
0F0001E0
0F0001E0
0F0001E0
0F0001E0
0F0001E0
0F0001E0
0F0001E0
0F000780
0F000780
0F000780
0F000780
0F000780
0F007E00
0F007E00
0F007E00
0F007E00
FFFFE000
FFFFE000
FFFFE000
FFFFE000
ENDCHAR
STARTCHAR 0045
ENCODING 69
SWIDTH 531 0
DWIDTH 34 0
BBX 27 47 2 0
BITMAP
FFFFFFE0
FFFFFFE0
FFFFFFE0
FFFFFFE0
0F0001E0
0F0001E0
0F0001E0
0F0001E0
0F0001E0
0F0001E0
0F0001E0
0F0001E0
0F0001E0
0F000000
0F000000
0F000000
0F000000
0F01E000
0F01E000
0F01E000
0F01E000
0F01E000
0FFFE000
0FFFE000
0FFFE000
0FFFE000
0F01E000
0F01E000
0F01E000
0F01E000
0F000000
0F000000
0F000000
0F000000
0F0001E0
0F0001E0
0F0001E0
0F0001E0
0F0001E0
0F0001E0
0F0001E0
0F0001E0
0F0001E0
FFFFFFE0
FFFFFFE0
FFFFFFE0
FFFFFFE0
ENDCHAR
STARTCHAR 0046
ENCODING 70
SWIDTH 531 0
DWIDTH 34 0
BBX 28 47 2 0
BITMAP
FFFFFFF0
FFFFFFF0
FFFFFFF0
FFFFFFF0
0F0000F0
0F0000F0
0F0000F0
0F0000F0
0F0000F0
0F0000F0
0F0000F0
0F0000F0
0F0000F0
0F000000
0F000000
0F000000
0F000000
0F01E000
0F01E000
0F01E000
0F01E000
0F01E000
0FFFE000
0FFFE000
0FFFE000
0FFFE000
0F01E000
0F01E000
0F01E000
0F01E000
0F000000
0F000000
0F000000
0F000000
0F000000
0F000000
0F000000
0F000000
0F000000
0F000000
0F000000
0F000000
0F000000
FFF80000
FFF80000
FFF80000
FFF80000
ENDCHAR
STARTCHAR 0047
ENCODING 71
SWIDTH 531 0
DWIDTH 34 0
BBX 28 47 4 0
BITMAP
00FFFF80
00FFFF80
00FFFF80
00FFFF80
00C00780
0FC00780
0FC00780
0FC00780
0FC00780
3C000780
3C000780
3C000780
3C000780
F0000000
F0000000
F0000000
F0000000
F0000000
F0000000
F0000000
F0000000
F0000000
F0000000
F0000000
F0000000
F0000000
F001FFF0
F001FFF0
F001FFF0
F001FFF0
F0000780
F0000780
F0000780
F0000780
3C000780
3C000780
3C000780
3C000780
3C000780
0FC00780
0FC00780
0FC00780
0FC00780
00FFFF80
00FFFF80
00FFFF80
00FFFF80
ENDCHAR
STARTCHAR 0048
ENCODING 72
SWIDTH 531 0
DWIDTH 34 0
BBX 30 47 2 0
BITMAP
FF8007FC
FF8007FC
FF8007FC
FF8007FC
3C0000F0
3C0000F0
3C0000F0
3C0000F0
3C0000F0
3C0000F0
3C0000F0
3C0000F0
3C0000F0
3C0000F0
3C0000F0
3C0000F0
3C0000F0
3C0000F0
3C0000F0
3C0000F0
3C0000F0
3C0000F0
3FFFFFF0
3FFFFFF0
3FFFFFF0
3FFFFFF0
3C0000F0
3C0000F0
3C0000F0
3C0000F0
3C0000F0
3C0000F0
3C0000F0
3C0000F0
3C0000F0
3C0000F0
3C0000F0
3C0000F0
3C0000F0
3C0000F0
3C0000F0
3C0000F0
3C0000F0
FF8007FC
FF8007FC
FF8007FC
FF8007FC
ENDCHAR
STARTCHAR 0049
ENCODING 73
SWIDTH 531 0
DWIDTH 34 0
BBX 18 47 8 0
BITMAP
FFFFC0
FFFFC0
FFFFC0
FFFFC0
01E000
01E000
01E000
01E000
01E000
01E000
01E000
01E000
01E000
01E000
01E000
01E000
01E000
01E000
01E000
01E000
01E000
01E000
01E000
01E000
01E000
01E000
01E000
01E000
01E000
01E000
01E000
01E000
01E000
01E000
01E000
01E000
01E000
01E000
01E000
01E000
01E000
01E000
01E000
FFFFC0
FFFFC0
FFFFC0
FFFFC0
ENDCHAR
STARTCHAR 004A
ENCODING 74
SWIDTH 531 0
DWIDTH 34 0
BBX 30 47 2 0
BITMAP
0007FFFC
0007FFFC
0007FFFC
0007FFFC
00001E00
00001E00
00001E00
00001E00
00001E00
00001E00
00001E00
00001E00
00001E00
00001E00
00001E00
00001E00
00001E00
00001E00
00001E00
00001E00
00001E00
00001E00
00001E00
00001E00
00001E00
00001E00
00001E00
00001E00
00001E00
00001E00
F0001E00
F0001E00
F0001E00
F0001E00
F0001E00
F0001E00
F0001E00
F0001E00
F0001E00
3C007E00
3C007E00
3C007E00
3C007E00
03FFE000
03FFE000
03FFE000
03FFE000
ENDCHAR
STARTCHAR 004B
ENCODING 75
SWIDTH 531 0
DWIDTH 34 0
BBX 30 47 2 0
BITMAP
FF801FFC
FF801FFC
FF801FFC
FF801FFC
3C001F80
3C001F80
3C001F80
3C001F80
3C001F80
3C01F800
3C01F800
3C01F800
3C01F800
3C1F8000
3C1F8000
3C1F8000
3C1F8000
3FFE0000
3FFE0000
3FFE0000
3FFE0000
3FFF8000
3FFF8000
3FFF8000
3FFF8000
3FFF8000
3C01E000
3C01E000
3C01E000
3C01E000
3C007800
3C007800
3C007800
3C007800
3C001E00
3C001E00
3C001E00
3C001E00
3C001FF0
3C0003F0
3C0003F0
3C0003F0
3C0003F0
FF801FFC
FF801FFC
FF801FFC
FF801FFC
ENDCHAR
STARTCHAR 004C
ENCODING 76
SWIDTH 531 0
DWIDTH 34 0
BBX 28 47 2 0
BITMAP
FFF80000
FFF80000
FFF80000
FFF80000
0F000000
0F000000
0F000000
0F000000
0F000000
0F000000
0F000000
0F000000
0F000000
0F000000
0F000000
0F000000
0F000000
0F000000
0F000000
0F000000
0F000000
0F000000
0F000000
0F000000
0F000000
0F000000
0F000000
0F000000
0F000000
0F000000
0F000000
0F000000
0F000000
0F000000
0F0000F0
0F0000F0
0F0000F0
0F0000F0
0F0003F0
0F0003F0
0F0003F0
0F0003F0
0F0003F0
FFFFFFF0
FFFFFFF0
FFFFFFF0
FFFFFFF0
ENDCHAR
STARTCHAR 004D
ENCODING 77
SWIDTH 531 0
DWIDTH 34 0
BBX 30 47 2 0
BITMAP
FF8007FC
FF8007FC
FF8007FC
FF8007FC
3FE01FF0
3FE01FF0
3FE01FF0
3FE01FF0
3FE01FF0
3C7878F0
3C7878F0
3C7878F0
3C7878F0
3C7FF8F0
3C7FF8F0
3C7FF8F0
3C7FF8F0
3C1FE0F0
3C1FE0F0
3C1FE0F0
3C1FE0F0
3C1FE0F0
3C0780F0
3C0780F0
3C0780F0
3C0780F0
3C0000F0
3C0000F0
3C0000F0
3C0000F0
3C0000F0
3C0000F0
3C0000F0
3C0000F0
3C0000F0
3C0000F0
3C0000F0
3C0000F0
3C0000F0
3C0000F0
3C0000F0
3C0000F0
3C0000F0
FF8007FC
FF8007FC
FF8007FC
FF8007FC
ENDCHAR
STARTCHAR 004E
ENCODING 78
SWIDTH 531 0
DWIDTH 34 0
BBX 30 47 2 0
BITMAP
FF8007FC
FF8007FC
FF8007FC
FF8007FC
3FE000F0
3FE000F0
3FE000F0
3FE000F0
3FE000F0
3FF800F0
3FF800F0
3FF800F0
3FF800F0
3C7E00F0
3C7E00F0
3C7E00F0
3C7E00F0
3C1F80F0
3C1F80F0
3C1F80F0
3C1F80F0
3C07E0F0
3C07E0F0
3C07E0F0
3C07E0F0
3C07E0F0
3C01F8F0
3C01F8F0
3C01F8F0
3C01F8F0
3C007FF0
3C007FF0
3C007FF0
3C007FF0
3C001FF0
3C001FF0
3C001FF0
3C001FF0
3C001FF0
3C0007F0
3C0007F0
3C0007F0
3C0007F0
FF8000F0
FF8000F0
FF8000F0
FF8000F0
ENDCHAR
STARTCHAR 004F
ENCODING 79
SWIDTH 531 0
DWIDTH 34 0
BBX 30 47 2 0
BITMAP
00FFF800
00FFF800
00FFF800
00FFF800
00C01800
0FC01F80
0FC01F80
0FC01F80
0FC01F80
3C0000F0
3C0000F0
3C0000F0
3C0000F0
F000003C
F000003C
F000003C
F000003C
F000003C
F000003C
F000003C
F000003C
F000003C
F000003C
F000003C
F000003C
F000003C
F000003C
F000003C
F000003C
F000003C
F000003C
F000003C
F000003C
F000003C
3C0000F0
3C0000F0
3C0000F0
3C0000F0
3C0000F0
0FC01F80
0FC01F80
0FC01F80
0FC01F80
00FFF800
00FFF800
00FFF800
00FFF800
ENDCHAR
STARTCHAR 0050
ENCODING 80
SWIDTH 531 0
DWIDTH 34 0
BBX 28 47 2 0
BITMAP
FFFFFC00
FFFFFC00
FFFFFC00
FFFFFC00
3C001F80
3C001F80
3C001F80
3C001F80
3C001F80
3C0003F0
3C0003F0
3C0003F0
3C0003F0
3C0003F0
3C0003F0
3C0003F0
3C0003F0
3C001F80
3C001F80
3C001F80
3C001F80
3C001C00
3FFFFC00
3FFFFC00
3FFFFC00
3FFFFC00
3C000000
3C000000
3C000000
3C000000
3C000000
3C000000
3C000000
3C000000
3C000000
3C000000
3C000000
3C000000
3C000000
3C000000
3C000000
3C000000
3C000000
FF800000
FF800000
FF800000
FF800000
ENDCHAR
STARTCHAR 0051
ENCODING 81
SWIDTH 531 0
DWIDTH 34 0
BBX 30 55 2 -8
BITMAP
00FFF800
00FFF800
00FFF800
00FFF800
00C01800
0FC01FC0
0FC01FC0
0FC01FC0
0FC01FC0
3C0000F0
3C0000F0
3C0000F0
3C0000F0
F000003C
F000003C
F000003C
F000003C
F000003C
F000003C
F000003C
F000003C
F000003C
F000003C
F000003C
F000003C
F000003C
F000003C
F000003C
F000003C
F000003C
F000003C
F000003C
F000003C
F000003C
3C1F80F0
3C1F80F0
3C1F80F0
3C1F80F0
0C0180C0
0FC1FFC0
0FC1FFC0
0FC1FFC0
0FC1FFC0
00FFF800
00FFF800
00FFF800
00FFF800
00001E00
00001E00
00001E00
00001E00
000003F0
000003F0
000003F0
000003F0
ENDCHAR
STARTCHAR 0052
ENCODING 82
SWIDTH 531 0
DWIDTH 34 0
BBX 30 47 2 0
BITMAP
FFFFFE00
FFFFFE00
FFFFFE00
FFFFFE00
3C000780
3C000780
3C000780
3C000780
3C000780
3C0000F0
3C0000F0
3C0000F0
3C0000F0
3C0000F0
3C0000F0
3C0000F0
3C0000F0
3C000780
3C000780
3C000780
3C000780
3C000600
3FFFFE00
3FFFFE00
3FFFFE00
3FFFFE00
3C007800
3C007800
3C007800
3C007800
3C001E00
3C001E00
3C001E00
3C001E00
3C000780
3C000780
3C000780
3C000780
3C000780
3C000780
3C000780
3C000780
3C000780
FF8007FC
FF8007FC
FF8007FC
FF8007FC
ENDCHAR
STARTCHAR 0053
ENCODING 83
SWIDTH 531 0
DWIDTH 34 0
BBX 26 47 4 0
BITMAP
03FFFF00
03FFFF00
03FFFF00
03FFFF00
3F003F00
3F003F00
3F003F00
3F003F00
3F003F00
FC000F00
FC000F00
FC000F00
FC000F00
FC000000
FC000000
FC000000
FC000000
3FE00000
3FE00000
3FE00000
3FE00000
00E00000
00FF8000
00FF8000
00FF8000
00FF8000
0001FF00
0001FF00
0001FF00
0001FF00
00000FC0
00000FC0
00000FC0
00000FC0
F0000FC0
F0000FC0
F0000FC0
F0000FC0
FF003FC0
FF003F00
FF003F00
FF003F00
FF003F00
FFFFF000
FFFFF000
FFFFF000
FFFFF000
ENDCHAR
STARTCHAR 0054
ENCODING 84
SWIDTH 531 0
DWIDTH 34 0
BBX 30 47 2 0
BITMAP
FFFFFFFC
FFFFFFFC
FFFFFFFC
FFFFFFFC
FC0781FC
FC0781FC
FC0781FC
FC0781FC
FC0781FC
F007803C
F007803C
F007803C
F007803C
00078000
00078000
00078000
00078000
00078000
00078000
00078000
00078000
00078000
00078000
00078000
00078000
00078000
00078000
00078000
00078000
00078000
00078000
00078000
00078000
00078000
00078000
00078000
00078000
00078000
00078000
00078000
00078000
00078000
00078000
00FFF800
00FFF800
00FFF800
00FFF800
ENDCHAR
STARTCHAR 0055
ENCODING 85
SWIDTH 531 0
DWIDTH 34 0
BBX 30 47 2 0
BITMAP
FF8007FC
FF8007FC
FF8007FC
FF8007FC
3C0000F0
3C0000F0
3C0000F0
3C0000F0
3C0000F0
3C0000F0
3C0000F0
3C0000F0
3C0000F0
3C0000F0
3C0000F0
3C0000F0
3C0000F0
3C0000F0
3C0000F0
3C0000F0
3C0000F0
3C0000F0
3C0000F0
3C0000F0
3C0000F0
3C0000F0
3C0000F0
3C0000F0
3C0000F0
3C0000F0
3C0000F0
3C0000F0
3C0000F0
3C0000F0
3C0000F0
3C0000F0
3C0000F0
3C0000F0
3C0000F0
0FC01F80
0FC01F80
0FC01F80
0FC01F80
007FF800
007FF800
007FF800
007FF800
ENDCHAR
STARTCHAR 0056
ENCODING 86
SWIDTH 531 0
DWIDTH 34 0
BBX 30 47 2 0
BITMAP
FF0007FC
FF0007FC
FF0007FC
FF0007FC
3C0000F0
3C0000F0
3C0000F0
3C0000F0
3C0000F0
3C0000F0
3C0000F0
3C0000F0
3C0000F0
0F000780
0F000780
0F000780
0F000780
0F000780
0F000780
0F000780
0F000780
01E01E00
01E01E00
01E01E00
01E01E00
01E01E00
01E01E00
01E01E00
01E01E00
01E01E00
00787800
00787800
00787800
00787800
00787800
00787800
00787800
00787800
001FE000
001FE000
001FE000
001FE000
001FE000
00078000
00078000
00078000
00078000
ENDCHAR
STARTCHAR 0057
ENCODING 87
SWIDTH 531 0
DWIDTH 34 0
BBX 30 47 2 0
BITMAP
FF8007FC
FF8007FC
FF8007FC
FF8007FC
3C0000F0
3C0000F0
3C0000F0
3C0000F0
3C0000F0
3C0000F0
3C0000F0
3C0000F0
3C0000F0
3C0000F0
3C0000F0
3C0000F0
3C0000F0
3C0000F0
3C0000F0
3C0000F0
3C0000F0
3C0780F0
3C0780F0
3C0780F0
3C0780F0
3C0780F0
3C1FE0F0
3C1FE0F0
3C1FE0F0
3C1FE0F0
3C7FF8F0
3C7FF8F0
3C7FF8F0
3C7FF8F0
3C7878F0
3C7878F0
3C7878F0
3C7878F0
3FE01FF0
3FE01FF0
3FE01FF0
3FE01FF0
3FE01FF0
3F8007F0
3F8007F0
3F8007F0
3F8007F0
ENDCHAR
STARTCHAR 0058
ENCODING 88
SWIDTH 531 0
DWIDTH 34 0
BBX 30 47 2 0
BITMAP
FFE01FFC
FFE01FFC
FFE01FFC
FFE01FFC
0F000780
0F000780
0F000780
0F000780
0F000780
01E01E00
01E01E00
01E01E00
01E01E00
00787800
00787800
00787800
00787800
001FE000
001FE000
001FE000
001FE000
001FE000
00078000
00078000
00078000
00078000
001FE000
001FE000
001FE000
001FE000
00787800
00787800
00787800
00787800
01E01E00
01E01E00
01E01E00
01E01E00
0FE01F80
0F000780
0F000780
0F000780
0F000780
FFE01FFC
FFE01FFC
FFE01FFC
FFE01FFC
ENDCHAR
STARTCHAR 0059
ENCODING 89
SWIDTH 531 0
DWIDTH 34 0
BBX 30 47 2 0
BITMAP
FFE01FFC
FFE01FFC
FFE01FFC
FFE01FFC
0F000780
0F000780
0F000780
0F000780
0F000780
01E01E00
01E01E00
01E01E00
01E01E00
00787800
00787800
00787800
00787800
001FE000
001FE000
001FE000
001FE000
001FE000
00078000
00078000
00078000
00078000
00078000
00078000
00078000
00078000
00078000
00078000
00078000
00078000
00078000
00078000
00078000
00078000
00078000
00078000
00078000
00078000
00078000
007FF800
007FF800
007FF800
007FF800
ENDCHAR
STARTCHAR 005A
ENCODING 90
SWIDTH 531 0
DWIDTH 34 0
BBX 25 47 4 0
BITMAP
FFFFFF80
FFFFFF80
FFFFFF80
FFFFFF80
FC001E00
FC001E00
FC001E00
FC001E00
FC001E00
F0007800
F0007800
F0007800
F0007800
0001E000
0001E000
0001E000
0001E000
00078000
00078000
00078000
00078000
001F8000
001E0000
001E0000
001E0000
001E0000
00780000
00780000
00780000
00780000
01E00000
01E00000
01E00000
01E00000
0F000780
0F000780
0F000780
0F000780
3F001F80
3C001F80
3C001F80
3C001F80
3C001F80
FFFFFF80
FFFFFF80
FFFFFF80
FFFFFF80
ENDCHAR
STARTCHAR 005B
ENCODING 91
SWIDTH 546 0
DWIDTH 35 0
BBX 17 55 9 -4
BITMAP
FFFF80
FFFF80
FFFF80
FFFF80
F00000
F00000
F00000
F00000
F00000
F00000
F00000
F00000
F00000
F00000
F00000
F00000
F00000
F00000
F00000
F00000
F00000
F00000
F00000
F00000
F00000
F00000
F00000
F00000
F00000
F00000
F00000
F00000
F00000
F00000
F00000
F00000
F00000
F00000
F00000
F00000
F00000
F00000
F00000
F00000
F00000
F00000
F00000
F00000
F00000
F00000
F00000
FFFF80
FFFF80
FFFF80
FFFF80
ENDCHAR
STARTCHAR 005C
ENCODING 92
SWIDTH 531 0
DWIDTH 34 0
BBX 30 55 2 -4
BITMAP
F0000000
F0000000
F0000000
F0000000
3C000000
3C000000
3C000000
3C000000
0F000000
0F000000
0F000000
0F000000
0F000000
01E00000
01E00000
01E00000
01E00000
00780000
00780000
00780000
00780000
001E0000
001E0000
001E0000
001E0000
001F8000
00078000
00078000
00078000
00078000
0001E000
0001E000
0001E000
0001E000
00007800
00007800
00007800
00007800
00001E00
00001E00
00001E00
00001E00
00000780
00000780
00000780
00000780
00000780
000000F0
000000F0
000000F0
000000F0
0000003C
0000003C
0000003C
0000003C
ENDCHAR
STARTCHAR 005D
ENCODING 93
SWIDTH 546 0
DWIDTH 35 0
BBX 17 55 9 -4
BITMAP
FFFF80
FFFF80
FFFF80
FFFF80
000780
000780
000780
000780
000780
000780
000780
000780
000780
000780
000780
000780
000780
000780
000780
000780
000780
000780
000780
000780
000780
000780
000780
000780
000780
000780
000780
000780
000780
000780
000780
000780
000780
000780
000780
000780
000780
000780
000780
000780
000780
000780
000780
000780
000780
000780
000780
FFFF80
FFFF80
FFFF80
FFFF80
ENDCHAR
STARTCHAR 005E
ENCODING 94
SWIDTH 531 0
DWIDTH 34 0
BBX 21 13 6 34
BITMAP
007800
007800
007800
007800
000000
0F0780
0F0780
0F0780
0F0780
F00078
F00078
F00078
F00078
ENDCHAR
STARTCHAR 005F
ENCODING 95
SWIDTH 531 0
DWIDTH 34 0
BBX 26 4 4 -17
BITMAP
FFFFFFC0
FFFFFFC0
FFFFFFC0
FFFFFFC0
ENDCHAR
STARTCHAR 0060
ENCODING 96
SWIDTH 531 0
DWIDTH 34 0
BBX 8 17 13 30
BITMAP
FC
FC
FC
FC
FC
FC
FC
FC
FC
3C
3C
3C
3C
0F
0F
0F
0F
ENDCHAR
STARTCHAR 0061
ENCODING 97
SWIDTH 531 0
DWIDTH 34 0
BBX 30 34 2 0
BITMAP
0FFFF800
0FFFF800
0FFFF800
0FFFF800
FC007E00
FC007E00
FC007E00
FC007E00
00001E00
00001E00
00001E00
00001E00
00001E00
03FFFE00
03FFFE00
03FFFE00
03FFFE00
3F001E00
3F001E00
3F001E00
3F001E00
F0001E00
F0001E00
F0001E00
F0001E00
FC007E3C
FC007E3C
FC007E3C
FC007E3C
FC007E3C
0FFFE7FC
0FFFE7FC
0FFFE7FC
0FFFE7FC
ENDCHAR
STARTCHAR 0062
ENCODING 98
SWIDTH 531 0
DWIDTH 34 0
BBX 27 47 2 0
BITMAP
FF000000
FF000000
FF000000
FF000000
0F000000
0F000000
0F000000
0F000000
0F000000
0F000000
0F000000
0F000000
0F000000
0F3FF800
0F3FF800
0F3FF800
0F3FF800
0FF01F80
0FF01F80
0FF01F80
0FF01F80
0F0001E0
0F0001E0
0F0001E0
0F0001E0
0F0001E0
0F0001E0
0F0001E0
0F0001E0
0F0001E0
0F0001E0
0F0001E0
0F0001E0
0F0001E0
0F0001E0
0F0001E0
0F0001E0
0F0001E0
0F000180
0FF01F80
0FF01F80
0FF01F80
0FF01F80
0F3FF800
0F3FF800
0F3FF800
0F3FF800
ENDCHAR
STARTCHAR 0063
ENCODING 99
SWIDTH 515 0
DWIDTH 33 0
BBX 25 34 4 0
BITMAP
03FFF800
03FFF800
03FFF800
03FFF800
3F007F80
3F007F80
3F007F80
3F007F80
F0000780
F0000780
F0000780
F0000780
F0000780
F0000000
F0000000
F0000000
F0000000
F0000000
F0000000
F0000000
F0000000
F0000000
F0000000
F0000000
F0000000
30000000
3F001F80
3F001F80
3F001F80
3F001F80
03FFE000
03FFE000
03FFE000
03FFE000
ENDCHAR
STARTCHAR 0064
ENCODING 100
SWIDTH 531 0
DWIDTH 34 0
BBX 28 47 4 0
BITMAP
0001FE00
0001FE00
0001FE00
0001FE00
00001E00
00001E00
00001E00
00001E00
00001E00
00001E00
00001E00
00001E00
00001E00
03FF9E00
03FF9E00
03FF9E00
03FF9E00
3F01FE00
3F01FE00
3F01FE00
3F01FE00
F0001E00
F0001E00
F0001E00
F0001E00
F0001E00
F0001E00
F0001E00
F0001E00
F0001E00
F0001E00
F0001E00
F0001E00
F0001E00
F0001E00
F0001E00
F0001E00
F0001E00
30001E00
3F01FE00
3F01FE00
3F01FE00
3F01FE00
03FFE3F0
03FFE3F0
03FFE3F0
03FFE3F0
ENDCHAR
STARTCHAR 0065
ENCODING 101
SWIDTH 515 0
DWIDTH 33 0
BBX 25 34 4 0
BITMAP
03FFE000
03FFE000
03FFE000
03FFE000
3F007E00
3F007E00
3F007E00
3F007E00
F0000780
F0000780
F0000780
F0000780
F0000780
FFFFFF80
FFFFFF80
FFFFFF80
FFFFFF80
F0000000
F0000000
F0000000
F0000000
F0000000
F0000000
F0000000
F0000000
30000000
3F001F80
3F001F80
3F001F80
3F001F80
03FFF800
03FFF800
03FFF800
03FFF800
ENDCHAR
STARTCHAR 0066
ENCODING 102
SWIDTH 531 0
DWIDTH 34 0
BBX 24 47 6 0
BITMAP
007FFC
007FFC
007FFC
007FFC
01FC3F
01FC3F
01FC3F
01FC3F
01FC3F
01E03F
01E03F
01E03F
01E03F
01E000
01E000
01E000
01E000
FFFFC0
FFFFC0
FFFFC0
FFFFC0
01E000
01E000
01E000
01E000
01E000
01E000
01E000
01E000
01E000
01E000
01E000
01E000
01E000
01E000
01E000
01E000
01E000
01E000
01E000
01E000
01E000
01E000
FFFFC0
FFFFC0
FFFFC0
FFFFC0
ENDCHAR
STARTCHAR 0067
ENCODING 103
SWIDTH 531 0
DWIDTH 34 0
BBX 30 51 2 -17
BITMAP
00FFFFF0
00FFFFF0
00FFFFF0
00FFFFF0
0FC01FF0
0FC01FF0
0FC01FF0
0FC01FF0
0F001E00
0F001E00
0F001E00
0F001E00
0F001E00
0FC07E00
0FC07E00
0FC07E00
0FC07E00
03FFE000
03FFE000
03FFE000
03FFE000
3F000000
3F000000
3F000000
3F000000
3C000000
3C000000
3C000000
3C000000
3C000000
0FFFFE00
0FFFFE00
0FFFFE00
0FFFFE00
3F0003F0
3F0003F0
3F0003F0
3F0003F0
FC0000FC
FC0000FC
FC0000FC
FC0000FC
3F0003F0
3F0003F0
3F0003F0
3F0003F0
3F0003F0
03FFFE00
03FFFE00
03FFFE00
03FFFE00
ENDCHAR
STARTCHAR 0068
ENCODING 104
SWIDTH 531 0
DWIDTH 34 0
BBX 30 47 2 0
BITMAP
FC000000
FC000000
FC000000
FC000000
3C000000
3C000000
3C000000
3C000000
3C000000
3C000000
3C000000
3C000000
3C000000
3C7FF800
3C7FF800
3C7FF800
3C7FF800
3FE01F80
3FE01F80
3FE01F80
3FE01F80
3F8000F0
3F8000F0
3F8000F0
3F8000F0
3F8000F0
3C0000F0
3C0000F0
3C0000F0
3C0000F0
3C0000F0
3C0000F0
3C0000F0
3C0000F0
3C0000F0
3C0000F0
3C0000F0
3C0000F0
3C0000F0
3C0000F0
3C0000F0
3C0000F0
3C0000F0
FF8007FC
FF8007FC
FF8007FC
FF8007FC
ENDCHAR
STARTCHAR 0069
ENCODING 105
SWIDTH 546 0
DWIDTH 35 0
BBX 17 47 9 0
BITMAP
0FC000
0FC000
0FC000
0FC000
0FC000
0FC000
0FC000
0FC000
0FC000
000000
000000
000000
000000
FFC000
FFC000
FFC000
FFC000
03C000
03C000
03C000
03C000
03C000
03C000
03C000
03C000
03C000
03C000
03C000
03C000
03C000
03C000
03C000
03C000
03C000
03C000
03C000
03C000
03C000
03C000
03C000
03C000
03C000
03C000
FFFF80
FFFF80
FFFF80
FFFF80
ENDCHAR
STARTCHAR 006A
ENCODING 106
SWIDTH 531 0
DWIDTH 34 0
BBX 21 64 2 -17
BITMAP
0001F8
0001F8
0001F8
0001F8
0001F8
0001F8
0001F8
0001F8
0001F8
000000
000000
000000
000000
00FFF8
00FFF8
00FFF8
00FFF8
000078
000078
000078
000078
000078
000078
000078
000078
000078
000078
000078
000078
000078
000078
000078
000078
000078
000078
000078
000078
000078
000078
000078
000078
000078
000078
000078
000078
000078
000078
FC0078
FC0078
FC0078
FC0078
FC01F8
FC01F8
FC01F8
FC01F8
FF07F8
3F07E0
3F07E0
3F07E0
3F07E0
0FFF80
0FFF80
0FFF80
0FFF80
ENDCHAR
STARTCHAR 006B
ENCODING 107
SWIDTH 531 0
DWIDTH 34 0
BBX 28 47 2 0
BITMAP
FC000000
FC000000
FC000000
FC000000
3C000000
3C000000
3C000000
3C000000
3C000000
3C000000
3C000000
3C000000
3C000000
3C007FF0
3C007FF0
3C007FF0
3C007FF0
3C007E00
3C007E00
3C007E00
3C007E00
3C07E000
3C07E000
3C07E000
3C07E000
3C07E000
3C7F8000
3C7F8000
3C7F8000
3C7F8000
3FE1E000
3FE1E000
3FE1E000
3FE1E000
3C007800
3C007800
3C007800
3C007800
3C007E00
3C001E00
3C001E00
3C001E00
3C001E00
FF807FF0
FF807FF0
FF807FF0
FF807FF0
ENDCHAR
STARTCHAR 006C
ENCODING 108
SWIDTH 531 0
DWIDTH 34 0
BBX 18 47 8 0
BITMAP
FFE000
FFE000
FFE000
FFE000
01E000
01E000
01E000
01E000
01E000
01E000
01E000
01E000
01E000
01E000
01E000
01E000
01E000
01E000
01E000
01E000
01E000
01E000
01E000
01E000
01E000
01E000
01E000
01E000
01E000
01E000
01E000
01E000
01E000
01E000
01E000
01E000
01E000
01E000
01E000
01E000
01E000
01E000
01E000
FFFFC0
FFFFC0
FFFFC0
FFFFC0
ENDCHAR
STARTCHAR 006D
ENCODING 109
SWIDTH 531 0
DWIDTH 34 0
BBX 30 34 2 0
BITMAP
F1F87FC0
F1F87FC0
F1F87FC0
F1F87FC0
3F87E0F0
3F87E0F0
3F87E0F0
3F87E0F0
3C0780F0
3C0780F0
3C0780F0
3C0780F0
3C0780F0
3C0780F0
3C0780F0
3C0780F0
3C0780F0
3C0780F0
3C0780F0
3C0780F0
3C0780F0
3C0780F0
3C0780F0
3C0780F0
3C0780F0
3C0780F0
3C0780F0
3C0780F0
3C0780F0
3C0780F0
FFBFE7FC
FFBFE7FC
FFBFE7FC
FFBFE7FC
ENDCHAR
STARTCHAR 006E
ENCODING 110
SWIDTH 531 0
DWIDTH 34 0
BBX 30 34 2 0
BITMAP
FCFFFE00
FCFFFE00
FCFFFE00
FCFFFE00
0FE007F0
0FE007F0
0FE007F0
0FE007F0
0F0000F0
0F0000F0
0F0000F0
0F0000F0
0F0000F0
0F0000F0
0F0000F0
0F0000F0
0F0000F0
0F0000F0
0F0000F0
0F0000F0
0F0000F0
0F0000F0
0F0000F0
0F0000F0
0F0000F0
0F0000F0
0F0000F0
0F0000F0
0F0000F0
0F0000F0
3FE007FC
3FE007FC
3FE007FC
3FE007FC
ENDCHAR
STARTCHAR 006F
ENCODING 111
SWIDTH 531 0
DWIDTH 34 0
BBX 25 34 4 0
BITMAP
03FFE000
03FFE000
03FFE000
03FFE000
3F007E00
3F007E00
3F007E00
3F007E00
F0000780
F0000780
F0000780
F0000780
F0000780
F0000780
F0000780
F0000780
F0000780
F0000780
F0000780
F0000780
F0000780
F0000780
F0000780
F0000780
F0000780
30000600
3F007E00
3F007E00
3F007E00
3F007E00
03FFE000
03FFE000
03FFE000
03FFE000
ENDCHAR
STARTCHAR 0070
ENCODING 112
SWIDTH 531 0
DWIDTH 34 0
BBX 28 51 2 -17
BITMAP
FC7FF800
FC7FF800
FC7FF800
FC7FF800
3FE01F80
3FE01F80
3FE01F80
3FE01F80
3C0000F0
3C0000F0
3C0000F0
3C0000F0
3C0000F0
3C0000F0
3C0000F0
3C0000F0
3C0000F0
3C0000F0
3C0000F0
3C0000F0
3C0000F0
3C0000F0
3C0000F0
3C0000F0
3C0000F0
3C000080
3FE01F80
3FE01F80
3FE01F80
3FE01F80
3C7FF800
3C7FF800
3C7FF800
3C7FF800
3C000000
3C000000
3C000000
3C000000
3C000000
3C000000
3C000000
3C000000
3C000000
3C000000
3C000000
3C000000
3C000000
FF800000
FF800000
FF800000
FF800000
ENDCHAR
STARTCHAR 0071
ENCODING 113
SWIDTH 531 0
DWIDTH 34 0
BBX 28 51 4 -17
BITMAP
03FFE780
03FFE780
03FFE780
03FFE780
3F007F80
3F007F80
3F007F80
3F007F80
F0001F80
F0001F80
F0001F80
F0001F80
F0001F80
F0000780
F0000780
F0000780
F0000780
F0000780
F0000780
F0000780
F0000780
F0000780
F0000780
F0000780
F0000780
30000780
3F007F80
3F007F80
3F007F80
3F007F80
03FFE780
03FFE780
03FFE780
03FFE780
00000780
00000780
00000780
00000780
00000780
00000780
00000780
00000780
00000780
00000780
00000780
00000780
00000780
00001FF0
00001FF0
00001FF0
00001FF0
ENDCHAR
STARTCHAR 0072
ENCODING 114
SWIDTH 531 0
DWIDTH 34 0
BBX 28 34 2 0
BITMAP
FCFFFFC0
FCFFFFC0
FCFFFFC0
FCFFFFC0
0FE003F0
0FE003F0
0FE003F0
0FE003F0
0F000000
0F000000
0F000000
0F000000
0F000000
0F000000
0F000000
0F000000
0F000000
0F000000
0F000000
0F000000
0F000000
0F000000
0F000000
0F000000
0F000000
0F000000
0F000000
0F000000
0F000000
0F000000
FFF80000
FFF80000
FFF80000
FFF80000
ENDCHAR
STARTCHAR 0073
ENCODING 115
SWIDTH 515 0
DWIDTH 33 0
BBX 25 34 4 0
BITMAP
0FFFE000
0FFFE000
0FFFE000
0FFFE000
FC007E00
FC007E00
FC007E00
FC007E00
FC000000
FC000000
FC000000
FC000000
FC000000
0FFFE000
0FFFE000
0FFFE000
0FFFE000
00007E00
00007E00
00007E00
00007E00
00001F80
00001F80
00001F80
00001F80
00001E00
FC007E00
FC007E00
FC007E00
FC007E00
0FFFE000
0FFFE000
0FFFE000
0FFFE000
ENDCHAR
STARTCHAR 0074
ENCODING 116
SWIDTH 531 0
DWIDTH 34 0
BBX 26 47 2 0
BITMAP
00780000
00780000
00780000
00780000
00780000
00780000
00780000
00780000
00780000
00780000
00780000
00780000
00780000
FFFFFF00
FFFFFF00
FFFFFF00
FFFFFF00
00780000
00780000
00780000
00780000
00780000
00780000
00780000
00780000
00780000
00780000
00780000
00780000
00780000
00780000
00780000
00780000
00780000
007803C0
007803C0
007803C0
007803C0
007E0FC0
007E0FC0
007E0FC0
007E0FC0
007E0FC0
0007FC00
0007FC00
0007FC00
0007FC00
ENDCHAR
STARTCHAR 0075
ENCODING 117
SWIDTH 515 0
DWIDTH 33 0
BBX 29 34 2 0
BITMAP
FC0007E0
FC0007E0
FC0007E0
FC0007E0
3C0001E0
3C0001E0
3C0001E0
3C0001E0
3C0001E0
3C0001E0
3C0001E0
3C0001E0
3C0001E0
3C0001E0
3C0001E0
3C0001E0
3C0001E0
3C0001E0
3C0001E0
3C0001E0
3C0001E0
3C0007E0
3C0007E0
3C0007E0
3C0007E0
0F001FE0
0F001FE0
0F001FE0
0F001FE0
0F001FE0
03FFF9F8
03FFF9F8
03FFF9F8
03FFF9F8
ENDCHAR
STARTCHAR 0076
ENCODING 118
SWIDTH 531 0
DWIDTH 34 0
BBX 30 34 2 0
BITMAP
FF0007FC
FF0007FC
FF0007FC
FF0007FC
3C0000F0
3C0000F0
3C0000F0
3C0000F0
3C0000F0
3C0000F0
3C0000F0
3C0000F0
3C0000F0
0F000780
0F000780
0F000780
0F000780
01E01E00
01E01E00
01E01E00
01E01E00
00787800
00787800
00787800
00787800
001FE000
001FE000
001FE000
001FE000
001FE000
00078000
00078000
00078000
00078000
ENDCHAR
STARTCHAR 0077
ENCODING 119
SWIDTH 546 0
DWIDTH 35 0
BBX 35 34 0 0
BITMAP
FF00003FE0
FF00003FE0
FF00003FE0
FF00003FE0
3C00000F00
3C00000F00
3C00000F00
3C00000F00
3C00000F00
3C00000F00
3C00000F00
3C00000F00
3C00000F00
0F01E03C00
0F01E03C00
0F01E03C00
0F01E03C00
0F01E03C00
0F01E03C00
0F01E03C00
0F01E03C00
01E1E0F000
01E1E0F000
01E1E0F000
01E1E0F000
01E1E0F000
01E7FCF000
01E7FCF000
01E7FCF000
01E7FCF000
007E1F8000
007E1F8000
007E1F8000
007E1F8000
ENDCHAR
STARTCHAR 0078
ENCODING 120
SWIDTH 531 0
DWIDTH 34 0
BBX 30 34 2 0
BITMAP
FFE01FFC
FFE01FFC
FFE01FFC
FFE01FFC
3F0003F0
3F0003F0
3F0003F0
3F0003F0
3F0003F0
01F87E00
01F87E00
01F87E00
01F87E00
001FE000
001FE000
001FE000
001FE000
00FFF800
00FFF800
00FFF800
00FFF800
01F87E00
01F87E00
01F87E00
01F87E00
3FF87FF0
3F0003F0
3F0003F0
3F0003F0
3F0003F0
FFE01FFC
FFE01FFC
FFE01FFC
FFE01FFC
ENDCHAR
STARTCHAR 0079
ENCODING 121
SWIDTH 531 0
DWIDTH 34 0
BBX 30 47 2 -13
BITMAP
FFE01FFC
FFE01FFC
FFE01FFC
FFE01FFC
0F000780
0F000780
0F000780
0F000780
01E00780
01E00780
01E00780
01E00780
01E00780
00781E00
00781E00
00781E00
00781E00
001E1E00
001E1E00
001E1E00
001E1E00
0007F800
0007F800
0007F800
0007F800
0007F800
0001F800
0001F800
0001F800
0001F800
0001E000
0001E000
0001E000
0001E000
3C01E000
3C01E000
3C01E000
3C01E000
3C078000
3C078000
3C078000
3C078000
3C078000
0FFE0000
0FFE0000
0FFE0000
0FFE0000
ENDCHAR
STARTCHAR 007A
ENCODING 122
SWIDTH 515 0
DWIDTH 33 0
BBX 25 34 4 0
BITMAP
FFFFFF80
FFFFFF80
FFFFFF80
FFFFFF80
F0001F80
F0001F80
F0001F80
F0001F80
F0007E00
F0007E00
F0007E00
F0007E00
F0007E00
0007E000
0007E000
0007E000
0007E000
007E0000
007E0000
007E0000
007E0000
0FC00780
0FC00780
0FC00780
0FC00780
FC000780
FC000780
FC000780
FC000780
FC000780
FFFFFF80
FFFFFF80
FFFFFF80
FFFFFF80
ENDCHAR
STARTCHAR 007B
ENCODING 123
SWIDTH 531 0
DWIDTH 34 0
BBX 19 55 6 -4
BITMAP
007FE0
007FE0
007FE0
007FE0
01F800
01F800
01F800
01F800
01E000
01E000
01E000
01E000
01E000
01E000
01E000
01E000
01E000
01E000
01E000
01E000
01E000
07E000
07E000
07E000
07E000
07E000
FF8000
FF8000
FF8000
FF8000
07E000
07E000
07E000
07E000
01E000
01E000
01E000
01E000
01E000
01E000
01E000
01E000
01E000
01E000
01E000
01E000
01E000
01F800
01F800
01F800
01F800
007FE0
007FE0
007FE0
007FE0
ENDCHAR
STARTCHAR 007C
ENCODING 124
SWIDTH 531 0
DWIDTH 34 0
BBX 4 55 15 -4
BITMAP
F0
F0
F0
F0
F0
F0
F0
F0
F0
F0
F0
F0
F0
F0
F0
F0
F0
F0
F0
F0
F0
F0
F0
F0
F0
F0
00
00
00
F0
F0
F0
F0
F0
F0
F0
F0
F0
F0
F0
F0
F0
F0
F0
F0
F0
F0
F0
F0
F0
F0
F0
F0
F0
F0
ENDCHAR
STARTCHAR 007D
ENCODING 125
SWIDTH 531 0
DWIDTH 34 0
BBX 19 55 9 -4
BITMAP
FFE000
FFE000
FFE000
FFE000
01F800
01F800
01F800
01F800
007800
007800
007800
007800
007800
007800
007800
007800
007800
007800
007800
007800
007800
007E00
007E00
007E00
007E00
007E00
001FE0
001FE0
001FE0
001FE0
007E00
007E00
007E00
007E00
007800
007800
007800
007800
007800
007800
007800
007800
007800
007800
007800
007800
007800
01F800
01F800
01F800
01F800
FFE000
FFE000
FFE000
FFE000
ENDCHAR
STARTCHAR 007E
ENCODING 126
SWIDTH 531 0
DWIDTH 34 0
BBX 30 13 2 38
BITMAP
0FF80000
0FF80000
0FF80000
0FF80000
0C380000
FC3FE0FC
FC3FE0FC
FC3FE0FC
FC3FE0FC
00007FC0
00007FC0
00007FC0
00007FC0
ENDCHAR
STARTCHAR 00A1
ENCODING 161
SWIDTH 546 0
DWIDTH 35 0
BBX 13 47 11 0
BITMAP
0F00
0F00
0F00
0F00
0F00
0F00
0F00
0F00
0F00
0000
0000
0000
0000
0F00
0F00
0F00
0F00
0F00
0F00
0F00
0F00
0F00
0F00
0F00
0F00
0F00
3FE0
3FE0
3FE0
3FE0
FFF8
FFF8
FFF8
FFF8
FFF8
FFF8
FFF8
FFF8
FFF8
3FE0
3FE0
3FE0
3FE0
0F00
0F00
0F00
0F00
ENDCHAR
STARTCHAR 00A2
ENCODING 162
SWIDTH 531 0
DWIDTH 34 0
BBX 25 60 4 -13
BITMAP
001E0000
001E0000
001E0000
001E0000
001E0000
001E0000
001E0000
001E0000
001E0000
001E0000
001E0000
001E0000
001E0000
03FFE000
03FFE000
03FFE000
03FFE000
3F007E00
3F007E00
3F007E00
3F007E00
30000600
F0000780
F0000780
F0000780
F0000780
F0000000
F0000000
F0000000
F0000000
F0000000
F0000000
F0000000
F0000000
F0000780
F0000780
F0000780
F0000780
30000600
3F007E00
3F007E00
3F007E00
3F007E00
03FFE000
03FFE000
03FFE000
03FFE000
001E0000
001E0000
001E0000
001E0000
001E0000
001E0000
001E0000
001E0000
001E0000
001E0000
001E0000
001E0000
001E0000
ENDCHAR
STARTCHAR 00A3
ENCODING 163
SWIDTH 531 0
DWIDTH 34 0
BBX 28 47 2 0
BITMAP
0007FF00
0007FF00
0007FF00
0007FF00
00060300
007E03F0
007E03F0
007E03F0
007E03F0
00780000
00780000
00780000
00780000
00780000
00780000
00780000
00780000
0FFF8000
0FFF8000
0FFF8000
0FFF8000
00780000
00780000
00780000
00780000
00780000
00780000
00780000
00780000
00780000
0FF80000
0FF80000
0FF80000
0FF80000
F0780000
F0780000
F0780000
F0780000
F0780000
F07E00F0
F07E00F0
F07E00F0
F07E00F0
3FFFFFC0
3FFFFFC0
3FFFFFC0
3FFFFFC0
ENDCHAR
STARTCHAR 00A5
ENCODING 165
SWIDTH 531 0
DWIDTH 34 0
BBX 30 42 2 0
BITMAP
F000003C
F000003C
F000003C
F000003C
0F000780
0F000780
0F000780
0F000780
00787800
00787800
00787800
00787800
00078000
00078000
00078000
00078000
00078000
0FFFFF80
0FFFFF80
0FFFFF80
0FFFFF80
00078000
00078000
00078000
00078000
0FFFFF80
0FFFFF80
0FFFFF80
0FFFFF80
00078000
00078000
00078000
00078000
00078000
00078000
00078000
00078000
00078000
00078000
00078000
00078000
00078000
ENDCHAR
STARTCHAR 00A7
ENCODING 167
SWIDTH 531 0
DWIDTH 34 0
BBX 23 68 6 -17
BITMAP
01FFE0
01FFE0
01FFE0
01FFE0
0F0078
0F0078
0F0078
0F0078
01E000
01E000
01E000
01E000
01E000
01F800
01F800
01F800
01F800
0FFE00
0FFE00
0FFE00
0FFE00
3C0780
3C0780
3C0780
3C0780
FC07E0
F001E0
F001E0
F001E0
F001E0
F00078
F00078
F00078
F00078
3C001E
3C001E
3C001E
3C001E
0F001E
0F001E
0F001E
0F001E
01E078
01E078
01E078
01E078
01E078
00FFE0
00FFE0
00FFE0
00FFE0
001F80
001F80
001F80
001F80
000780
000780
000780
000780
000780
3C01E0
3C01E0
3C01E0
3C01E0
0FFF80
0FFF80
0FFF80
0FFF80
ENDCHAR
STARTCHAR 00AA
ENCODING 170
SWIDTH 546 0
DWIDTH 35 0
BBX 19 30 9 17
BITMAP
0FFE00
0FFE00
0FFE00
0FFE00
F00780
F00780
F00780
F00780
F00780
F00780
F00780
F00780
F00780
F00780
F00780
F00780
F00780
0FFFE0
0FFFE0
0FFFE0
0FFFE0
000000
000000
000000
000000
000000
FFFFE0
FFFFE0
FFFFE0
FFFFE0
ENDCHAR
STARTCHAR 00AB
ENCODING 171
SWIDTH 531 0
DWIDTH 34 0
BBX 26 21 4 13
BITMAP
007807C0
007807C0
007807C0
007807C0
0F003C00
0F003C00
0F003C00
0F003C00
00000000
F0078000
F0078000
F0078000
F0078000
0F003C00
0F003C00
0F003C00
0F003C00
007807C0
007807C0
007807C0
007807C0
ENDCHAR
STARTCHAR 00AC
ENCODING 172
SWIDTH 546 0
DWIDTH 35 0
BBX 26 21 4 4
BITMAP
FFFFFFC0
FFFFFFC0
FFFFFFC0
FFFFFFC0
000003C0
000003C0
000003C0
000003C0
000003C0
000003C0
000003C0
000003C0
000003C0
000003C0
000003C0
000003C0
000003C0
000003C0
000003C0
000003C0
000003C0
ENDCHAR
STARTCHAR 00B0
ENCODING 176
SWIDTH 531 0
DWIDTH 34 0
BBX 21 21 4 26
BITMAP
03FE00
03FE00
03FE00
03FE00
3C01E0
3C01E0
3C01E0
3C01E0
F00078
F00078
F00078
F00078
300060
3C01E0
3C01E0
3C01E0
3C01E0
03FE00
03FE00
03FE00
03FE00
ENDCHAR
STARTCHAR 00B1
ENCODING 177
SWIDTH 531 0
DWIDTH 34 0
BBX 26 39 4 4
BITMAP
001E0000
001E0000
001E0000
001E0000
001E0000
001E0000
001E0000
001E0000
001E0000
001E0000
001E0000
001E0000
001E0000
001E0000
FFFFFFC0
FFFFFFC0
FFFFFFC0
FFFFFFC0
001E0000
001E0000
001E0000
001E0000
001E0000
001E0000
001E0000
001E0000
001E0000
001E0000
001E0000
001E0000
001E0000
00000000
00000000
00000000
00000000
FFFFFFC0
FFFFFFC0
FFFFFFC0
FFFFFFC0
ENDCHAR
STARTCHAR 00B2
ENCODING 178
SWIDTH 531 0
DWIDTH 34 0
BBX 19 25 4 21
BITMAP
0FFE00
0FFE00
0FFE00
0FFE00
F001E0
F001E0
F001E0
F001E0
001E00
001E00
001E00
001E00
01E000
01E000
01E000
01E000
3C0000
3C0000
3C0000
3C0000
3C0000
FFFF80
FFFF80
FFFF80
FFFF80
ENDCHAR
STARTCHAR 00B5
ENCODING 181
SWIDTH 531 0
DWIDTH 34 0
BBX 26 43 4 -13
BITMAP
0F001E00
0F001E00
0F001E00
0F001E00
0F001E00
0F001E00
0F001E00
0F001E00
0F001E00
0F001E00
0F001E00
0F001E00
0F001E00
0F001E00
0F001E00
0F001E00
0F001E00
0F001E00
0F001E00
0F001E00
0F001E00
0FC07E00
0FC07E00
0FC07E00
0FC07E00
0FC07E00
0FFFFFC0
0FFFFFC0
0FFFFFC0
0FFFFFC0
0F000000
0F000000
0F000000
0F000000
3C000000
3C000000
3C000000
3C000000
3C000000
F0000000
F0000000
F0000000
F0000000
ENDCHAR
STARTCHAR 00B6
ENCODING 182
SWIDTH 531 0
DWIDTH 34 0
BBX 30 47 2 0
BITMAP
03FFFFFC
03FFFFFC
03FFFFFC
03FFFFFC
3F01E0F0
3F01E0F0
3F01E0F0
3F01E0F0
3F01E0F0
FC01E0F0
FC01E0F0
FC01E0F0
FC01E0F0
FC01E0F0
FC01E0F0
FC01E0F0
FC01E0F0
3F01E0F0
3F01E0F0
3F01E0F0
3F01E0F0
0301E0F0
03FFE0F0
03FFE0F0
03FFE0F0
03FFE0F0
0001E0F0
0001E0F0
0001E0F0
0001E0F0
0001E0F0
0001E0F0
0001E0F0
0001E0F0
0001E0F0
0001E0F0
0001E0F0
0001E0F0
0001E0F0
0001E0F0
0001E0F0
0001E0F0
0001E0F0
0001E0F0
0001E0F0
0001E0F0
0001E0F0
ENDCHAR
STARTCHAR 00B7
ENCODING 183
SWIDTH 546 0
DWIDTH 35 0
BBX 9 4 13 13
BITMAP
FF80
FF80
FF80
FF80
ENDCHAR
STARTCHAR 00BA
ENCODING 186
SWIDTH 546 0
DWIDTH 35 0
BBX 19 30 9 17
BITMAP
0FFE00
0FFE00
0FFE00
0FFE00
F001E0
F001E0
F001E0
F001E0
F001E0
F001E0
F001E0
F001E0
F001E0
F001E0
F001E0
F001E0
F001E0
0FFE00
0FFE00
0FFE00
0FFE00
000000
000000
000000
000000
000000
FFFFE0
FFFFE0
FFFFE0
FFFFE0
ENDCHAR
STARTCHAR 00BB
ENCODING 187
SWIDTH 531 0
DWIDTH 34 0
BBX 26 21 4 13
BITMAP
F0078000
F0078000
F0078000
F0078000
0F003C00
0F003C00
0F003C00
0F003C00
00000000
007807C0
007807C0
007807C0
007807C0
0F003C00
0F003C00
0F003C00
0F003C00
F0078000
F0078000
F0078000
F0078000
ENDCHAR
STARTCHAR 00BC
ENCODING 188
SWIDTH 531 0
DWIDTH 34 0
BBX 26 47 4 0
BITMAP
3F000000
3F000000
3F000000
3F000000
0F000000
0F000000
0F000000
0F000000
0F0003C0
0F0003C0
0F0003C0
0F0003C0
0F000000
0F007800
0F007800
0F007800
0F007800
00078000
00078000
00078000
00078000
00781E00
00781E00
00781E00
00781E00
0F007E00
0F007E00
0F007E00
0F007E00
00001E00
F0079E00
F0079E00
F0079E00
F0079E00
001FFFC0
001FFFC0
001FFFC0
001FFFC0
00001E00
00001E00
00001E00
00001E00
00001E00
00001E00
00001E00
00001E00
00001E00
ENDCHAR
STARTCHAR 00BD
ENCODING 189
SWIDTH 531 0
DWIDTH 34 0
BBX 25 47 4 0
BITMAP
3F000000
3F000000
3F000000
3F000000
0F000000
0F000000
0F000000
0F000000
0F000000
0F000780
0F000780
0F000780
0F000780
0F007800
0F007800
0F007800
0F007800
00078000
00078000
00078000
00078000
00000000
00780000
00780000
00780000
00780000
0F01F800
0F01F800
0F01F800
0F01F800
F01E0780
F01E0780
F01E0780
F01E0780
00001E00
00001E00
00001E00
00001E00
0001E000
0001E000
0001E000
0001E000
0001E000
0007FF80
0007FF80
0007FF80
0007FF80
ENDCHAR
STARTCHAR 00BF
ENCODING 191
SWIDTH 531 0
DWIDTH 34 0
BBX 25 47 4 0
BITMAP
001E0000
001E0000
001E0000
001E0000
001E0000
001E0000
001E0000
001E0000
001E0000
00000000
00000000
00000000
00000000
001E0000
001E0000
001E0000
001E0000
001E0000
001E0000
001E0000
001E0000
001E0000
00780000
00780000
00780000
00780000
0F000000
0F000000
0F000000
0F000000
F0000380
F0000380
F0000380
F0000380
F0000380
F0000380
F0000380
F0000380
F0000380
F0000380
F0000380
F0000380
F0000380
3FFFFC00
3FFFFC00
3FFFFC00
3FFFFC00
ENDCHAR
STARTCHAR 00C4
ENCODING 196
SWIDTH 531 0
DWIDTH 34 0
BBX 25 51 4 0
BITMAP
FC001F80
FC001F80
FC001F80
FC001F80
00FF8000
00FF8000
00FF8000
00FF8000
01E1E000
01E1E000
01E1E000
01E1E000
01E1E000
0F007800
0F007800
0F007800
0F007800
3C001E00
3C001E00
3C001E00
3C001E00
F0000780
F0000780
F0000780
F0000780
F0000780
F0000780
F0000780
F0000780
F0000780
FFFFFF80
FFFFFF80
FFFFFF80
FFFFFF80
F0000780
F0000780
F0000780
F0000780
F0000780
F0000780
F0000780
F0000780
F0000780
F0000780
F0000780
F0000780
F0000780
F0000780
F0000780
F0000780
F0000780
ENDCHAR
STARTCHAR 00C5
ENCODING 197
SWIDTH 531 0
DWIDTH 34 0
BBX 21 51 6 0
BITMAP
03FE00
03FE00
03FE00
03FE00
3C01E0
3C01E0
3C01E0
3C01E0
000000
03FE00
03FE00
03FE00
03FE00
000000
000000
000000
000000
03FE00
03FE00
03FE00
03FE00
0F0780
0F0780
0F0780
0F0780
3C01E0
3C01E0
3C01E0
3C01E0
3C01E0
F00078
F00078
F00078
F00078
FFFFF8
FFFFF8
FFFFF8
FFFFF8
F00078
F00078
F00078
F00078
F00078
F00078
F00078
F00078
F00078
F00078
F00078
F00078
F00078
ENDCHAR
STARTCHAR 00C6
ENCODING 198
SWIDTH 531 0
DWIDTH 34 0
BBX 30 47 2 0
BITMAP
001FFFFC
001FFFFC
001FFFFC
001FFFFC
0079E000
0079E000
0079E000
0079E000
0079E000
01E1E000
01E1E000
01E1E000
01E1E000
0F01E000
0F01E000
0F01E000
0F01E000
3C01FFFC
3C01FFFC
3C01FFFC
3C01FFFC
3C01E000
FFFFE000
FFFFE000
FFFFE000
FFFFE000
F001E000
F001E000
F001E000
F001E000
F001E000
F001E000
F001E000
F001E000
F001E000
F001E000
F001E000
F001E000
F001E000
F001E000
F001E000
F001E000
F001E000
F001FFFC
F001FFFC
F001FFFC
F001FFFC
ENDCHAR
STARTCHAR 00C7
ENCODING 199
SWIDTH 531 0
DWIDTH 34 0
BBX 25 64 4 -17
BITMAP
00FFFF80
00FFFF80
00FFFF80
00FFFF80
00C01F80
0FC01F80
0FC01F80
0FC01F80
0FC01F80
3C000780
3C000780
3C000780
3C000780
F0000780
F0000780
F0000780
F0000780
F0000000
F0000000
F0000000
F0000000
F0000000
F0000000
F0000000
F0000000
F0000000
F0000000
F0000000
F0000000
F0000000
F0000780
F0000780
F0000780
F0000780
3C000780
3C000780
3C000780
3C000780
0FC07E00
0FC07E00
0FC07E00
0FC07E00
00C07800
00FFF800
00FFF800
00FFF800
00FFF800
00007800
00007800
00007800
00007800
00001E00
00001E00
00001E00
00001E00
00001E00
00001E00
00001E00
00001E00
00001E00
00FFF800
00FFF800
00FFF800
00FFF800
ENDCHAR
STARTCHAR 00C9
ENCODING 201
SWIDTH 531 0
DWIDTH 34 0
BBX 19 47 6 0
BITMAP
000780
000780
000780
000780
000000
007800
007800
007800
007800
0F0000
0F0000
0F0000
0F0000
000000
000000
000000
000000
FFFFE0
FFFFE0
FFFFE0
FFFFE0
F00000
F00000
F00000
F00000
F00000
F00000
F00000
F00000
F00000
FFFFE0
FFFFE0
FFFFE0
FFFFE0
F00000
F00000
F00000
F00000
F00000
F00000
F00000
F00000
F00000
FFFFE0
FFFFE0
FFFFE0
FFFFE0
ENDCHAR
STARTCHAR 00D1
ENCODING 209
SWIDTH 531 0
DWIDTH 34 0
BBX 25 51 4 0
BITMAP
01E00000
01E00000
01E00000
01E00000
3C1E1E00
3C1E1E00
3C1E1E00
3C1E1E00
00000000
0001E000
0001E000
0001E000
0001E000
00000000
00000000
00000000
00000000
FF800780
FF800780
FF800780
FF800780
F1E00780
F1E00780
F1E00780
F1E00780
F0780780
F0780780
F0780780
F0780780
F0780780
F01E0780
F01E0780
F01E0780
F01E0780
F0078780
F0078780
F0078780
F0078780
F001E780
F001E780
F001E780
F001E780
F0007F80
F0007F80
F0007F80
F0007F80
F0007F80
F0001F80
F0001F80
F0001F80
F0001F80
ENDCHAR
STARTCHAR 00D6
ENCODING 214
SWIDTH 531 0
DWIDTH 34 0
BBX 25 51 4 0
BITMAP
3F007E00
3F007E00
3F007E00
3F007E00
00000000
00000000
00000000
00000000
00000000
03FFE000
03FFE000
03FFE000
03FFE000
3F007E00
3F007E00
3F007E00
3F007E00
F0000780
F0000780
F0000780
F0000780
F0000780
F0000780
F0000780
F0000780
F0000780
F0000780
F0000780
F0000780
F0000780
F0000780
F0000780
F0000780
F0000780
F0000780
F0000780
F0000780
F0000780
F0000780
F0000780
F0000780
F0000780
F0000780
3F007E00
3F007E00
3F007E00
3F007E00
03FFE000
03FFE000
03FFE000
03FFE000
ENDCHAR
STARTCHAR 00DC
ENCODING 220
SWIDTH 531 0
DWIDTH 34 0
BBX 25 47 4 0
BITMAP
3F007E00
3F007E00
3F007E00
3F007E00
00000000
00000000
00000000
00000000
00000000
F0000780
F0000780
F0000780
F0000780
F0000780
F0000780
F0000780
F0000780
F0000780
F0000780
F0000780
F0000780
F0000780
F0000780
F0000780
F0000780
F0000780
F0000780
F0000780
F0000780
F0000780
F0000780
F0000780
F0000780
F0000780
F0000780
F0000780
F0000780
F0000780
F0000780
3C001E00
3C001E00
3C001E00
3C001E00
03FFE000
03FFE000
03FFE000
03FFE000
ENDCHAR
STARTCHAR 00E0
ENCODING 224
SWIDTH 531 0
DWIDTH 34 0
BBX 30 51 2 0
BITMAP
01E00000
01E00000
01E00000
01E00000
001E0000
001E0000
001E0000
001E0000
00000000
0001E000
0001E000
0001E000
0001E000
00000000
00000000
00000000
00000000
0FFFF800
0FFFF800
0FFFF800
0FFFF800
FC007E00
FC007E00
FC007E00
FC007E00
00001E00
00001E00
00001E00
00001E00
00001E00
01FFFE00
01FFFE00
01FFFE00
01FFFE00
3F001E00
3F001E00
3F001E00
3F001E00
F0001E00
F0001E00
F0001E00
F0001E00
FC007E3C
FC007E3C
FC007E3C
FC007E3C
FC007E3C
0FFFE7FC
0FFFE7FC
0FFFE7FC
0FFFE7FC
ENDCHAR
STARTCHAR 00E1
ENCODING 225
SWIDTH 531 0
DWIDTH 34 0
BBX 30 51 2 0
BITMAP
0001E000
0001E000
0001E000
0001E000
001E0000
001E0000
001E0000
001E0000
00000000
01E00000
01E00000
01E00000
01E00000
00000000
00000000
00000000
00000000
0FFFF800
0FFFF800
0FFFF800
0FFFF800
FC007E00
FC007E00
FC007E00
FC007E00
00001E00
00001E00
00001E00
00001E00
00001E00
01FFFE00
01FFFE00
01FFFE00
01FFFE00
3F001E00
3F001E00
3F001E00
3F001E00
F0001E00
F0001E00
F0001E00
F0001E00
FC007E3C
FC007E3C
FC007E3C
FC007E3C
FC007E3C
0FFFE7FC
0FFFE7FC
0FFFE7FC
0FFFE7FC
ENDCHAR
STARTCHAR 00E2
ENCODING 226
SWIDTH 531 0
DWIDTH 34 0
BBX 30 51 2 0
BITMAP
001E0000
001E0000
001E0000
001E0000
01E1E000
01E1E000
01E1E000
01E1E000
00000000
3C001E00
3C001E00
3C001E00
3C001E00
00000000
00000000
00000000
00000000
0FFFF800
0FFFF800
0FFFF800
0FFFF800
FC007E00
FC007E00
FC007E00
FC007E00
00001E00
00001E00
00001E00
00001E00
00001E00
01FFFE00
01FFFE00
01FFFE00
01FFFE00
3F001E00
3F001E00
3F001E00
3F001E00
F0001E00
F0001E00
F0001E00
F0001E00
FC007E3C
FC007E3C
FC007E3C
FC007E3C
FC007E3C
0FFFE7FC
0FFFE7FC
0FFFE7FC
0FFFE7FC
ENDCHAR
STARTCHAR 00E4
ENCODING 228
SWIDTH 531 0
DWIDTH 34 0
BBX 30 42 2 0
BITMAP
3F007E00
3F007E00
3F007E00
3F007E00
00000000
00000000
00000000
00000000
0FFFF800
0FFFF800
0FFFF800
0FFFF800
FC007E00
FC007E00
FC007E00
FC007E00
00001E00
00001E00
00001E00
00001E00
00001E00
03FFFE00
03FFFE00
03FFFE00
03FFFE00
3F001E00
3F001E00
3F001E00
3F001E00
F0001E00
F0001E00
F0001E00
F0001E00
FC007E3C
FC007E3C
FC007E3C
FC007E3C
FC007E3C
0FFFE7FC
0FFFE7FC
0FFFE7FC
0FFFE7FC
ENDCHAR
STARTCHAR 00E5
ENCODING 229
SWIDTH 531 0
DWIDTH 34 0
BBX 30 51 2 0
BITMAP
00FF8000
00FF8000
00FF8000
00FF8000
0F007800
0F007800
0F007800
0F007800
00000000
00FF8000
00FF8000
00FF8000
00FF8000
00000000
00000000
00000000
00000000
0FFFF800
0FFFF800
0FFFF800
0FFFF800
FC007E00
FC007E00
FC007E00
FC007E00
00001E00
00001E00
00001E00
00001E00
00001E00
03FFFE00
03FFFE00
03FFFE00
03FFFE00
3F001E00
3F001E00
3F001E00
3F001E00
F0001E00
F0001E00
F0001E00
F0001E00
FC007E3C
FC007E3C
FC007E3C
FC007E3C
FC007E3C
0FFFE7FC
0FFFE7FC
0FFFE7FC
0FFFE7FC
ENDCHAR
STARTCHAR 00E6
ENCODING 230
SWIDTH 531 0
DWIDTH 34 0
BBX 30 34 2 0
BITMAP
FFF87FC0
FFF87FC0
FFF87FC0
FFF87FC0
0007803C
0007803C
0007803C
0007803C
0007803C
0007803C
0007803C
0007803C
0007803C
0FFFFFFC
0FFFFFFC
0FFFFFFC
0FFFFFFC
F0078000
F0078000
F0078000
F0078000
F0078000
F0078000
F0078000
F0078000
F0078000
F0078000
F0078000
F0078000
F0078000
0FF87FFC
0FF87FFC
0FF87FFC
0FF87FFC
ENDCHAR
STARTCHAR 00E7
ENCODING 231
SWIDTH 531 0
DWIDTH 34 0
BBX 25 51 4 -17
BITMAP
03FFE000
03FFE000
03FFE000
03FFE000
3F007E00
3F007E00
3F007E00
3F007E00
30000600
F0000780
F0000780
F0000780
F0000780
F0000000
F0000000
F0000000
F0000000
F0000000
F0000000
F0000000
F0000000
F0000780
F0000780
F0000780
F0000780
30000600
3F007E00
3F007E00
3F007E00
3F007E00
03FFE000
03FFE000
03FFE000
03FFE000
0007E000
0007E000
0007E000
0007E000
00007800
00007800
00007800
00007800
00007800
00007800
00007800
00007800
00007800
00FFE000
00FFE000
00FFE000
00FFE000
ENDCHAR
STARTCHAR 00E8
ENCODING 232
SWIDTH 515 0
DWIDTH 33 0
BBX 25 51 4 0
BITMAP
01E00000
01E00000
01E00000
01E00000
001E0000
001E0000
001E0000
001E0000
00000000
0001E000
0001E000
0001E000
0001E000
00000000
00000000
00000000
00000000
01FFE000
01FFE000
01FFE000
01FFE000
3F007E00
3F007E00
3F007E00
3F007E00
F0000380
F0000380
F0000380
F0000380
F0000380
FFFFFF80
FFFFFF80
FFFFFF80
FFFFFF80
F0000000
F0000000
F0000000
F0000000
F0000000
F0000000
F0000000
F0000000
30000000
3F001F80
3F001F80
3F001F80
3F001F80
01FFFC00
01FFFC00
01FFFC00
01FFFC00
ENDCHAR
STARTCHAR 00E9
ENCODING 233
SWIDTH 515 0
DWIDTH 33 0
BBX 25 51 4 0
BITMAP
0001E000
0001E000
0001E000
0001E000
001E0000
001E0000
001E0000
001E0000
00000000
01E00000
01E00000
01E00000
01E00000
00000000
00000000
00000000
00000000
01FFE000
01FFE000
01FFE000
01FFE000
3F007E00
3F007E00
3F007E00
3F007E00
F0000380
F0000380
F0000380
F0000380
F0000380
FFFFFF80
FFFFFF80
FFFFFF80
FFFFFF80
F0000000
F0000000
F0000000
F0000000
F0000000
F0000000
F0000000
F0000000
30000000
3F001F80
3F001F80
3F001F80
3F001F80
01FFFC00
01FFFC00
01FFFC00
01FFFC00
ENDCHAR
STARTCHAR 00EA
ENCODING 234
SWIDTH 531 0
DWIDTH 34 0
BBX 25 51 4 0
BITMAP
001E0000
001E0000
001E0000
001E0000
01E1E000
01E1E000
01E1E000
01E1E000
00000000
3C001E00
3C001E00
3C001E00
3C001E00
00000000
00000000
00000000
00000000
01FFE000
01FFE000
01FFE000
01FFE000
3F007E00
3F007E00
3F007E00
3F007E00
F0000380
F0000380
F0000380
F0000380
F0000380
FFFFFF80
FFFFFF80
FFFFFF80
FFFFFF80
F0000000
F0000000
F0000000
F0000000
F0000000
F0000000
F0000000
F0000000
30000000
3F001F80
3F001F80
3F001F80
3F001F80
01FFFC00
01FFFC00
01FFFC00
01FFFC00
ENDCHAR
STARTCHAR 00EB
ENCODING 235
SWIDTH 515 0
DWIDTH 33 0
BBX 25 42 4 0
BITMAP
3F007E00
3F007E00
3F007E00
3F007E00
00000000
00000000
00000000
00000000
03FFE000
03FFE000
03FFE000
03FFE000
3F007E00
3F007E00
3F007E00
3F007E00
F0000780
F0000780
F0000780
F0000780
F0000780
FFFFFF80
FFFFFF80
FFFFFF80
FFFFFF80
F0000000
F0000000
F0000000
F0000000
F0000000
F0000000
F0000000
F0000000
30000000
3F001F80
3F001F80
3F001F80
3F001F80
03FFF800
03FFF800
03FFF800
03FFF800
ENDCHAR
STARTCHAR 00EC
ENCODING 236
SWIDTH 531 0
DWIDTH 34 0
BBX 19 51 6 0
BITMAP
F00000
F00000
F00000
F00000
0F0000
0F0000
0F0000
0F0000
000000
007800
007800
007800
007800
000000
000000
000000
000000
3FF800
3FF800
3FF800
3FF800
007800
007800
007800
007800
007800
007800
007800
007800
007800
007800
007800
007800
007800
007800
007800
007800
007800
007800
007800
007800
007800
007800
007800
007800
007800
007800
3FFFE0
3FFFE0
3FFFE0
3FFFE0
ENDCHAR
STARTCHAR 00ED
ENCODING 237
SWIDTH 531 0
DWIDTH 34 0
BBX 19 51 6 0
BITMAP
007800
007800
007800
007800
0F0000
0F0000
0F0000
0F0000
000000
F00000
F00000
F00000
F00000
000000
000000
000000
000000
3FF800
3FF800
3FF800
3FF800
007800
007800
007800
007800
007800
007800
007800
007800
007800
007800
007800
007800
007800
007800
007800
007800
007800
007800
007800
007800
007800
007800
007800
007800
007800
007800
3FFFE0
3FFFE0
3FFFE0
3FFFE0
ENDCHAR
STARTCHAR 00EE
ENCODING 238
SWIDTH 531 0
DWIDTH 34 0
BBX 22 51 4 0
BITMAP
007800
007800
007800
007800
0F0780
0F0780
0F0780
0F0780
000000
F0007C
F0007C
F0007C
F0007C
000000
000000
000000
000000
0FFE00
0FFE00
0FFE00
0FFE00
001E00
001E00
001E00
001E00
001E00
001E00
001E00
001E00
001E00
001E00
001E00
001E00
001E00
001E00
001E00
001E00
001E00
001E00
001E00
001E00
001E00
001E00
001E00
001E00
001E00
001E00
0FFFFC
0FFFFC
0FFFFC
0FFFFC
ENDCHAR
STARTCHAR 00EF
ENCODING 239
SWIDTH 531 0
DWIDTH 34 0
BBX 22 42 4 0
BITMAP
FC07E0
FC07E0
FC07E0
FC07E0
000000
000000
000000
000000
0FFE00
0FFE00
0FFE00
0FFE00
001E00
001E00
001E00
001E00
001E00
001E00
001E00
001E00
001E00
001E00
001E00
001E00
001E00
001E00
001E00
001E00
001E00
001E00
001E00
001E00
001E00
001E00
001E00
001E00
001E00
001E00
0FFFFC
0FFFFC
0FFFFC
0FFFFC
ENDCHAR
STARTCHAR 00F1
ENCODING 241
SWIDTH 531 0
DWIDTH 34 0
BBX 30 51 2 0
BITMAP
00780000
00780000
00780000
00780000
0F078780
0F078780
0F078780
0F078780
00000000
00007800
00007800
00007800
00007800
00000000
00000000
00000000
00000000
FC7FFF00
FC7FFF00
FC7FFF00
FC7FFF00
0FE007F0
0FE007F0
0FE007F0
0FE007F0
0F0000F0
0F0000F0
0F0000F0
0F0000F0
0F0000F0
0F0000F0
0F0000F0
0F0000F0
0F0000F0
0F0000F0
0F0000F0
0F0000F0
0F0000F0
0F0000F0
0F0000F0
0F0000F0
0F0000F0
0F0000F0
0F0000F0
0F0000F0
0F0000F0
0F0000F0
3FE007FC
3FE007FC
3FE007FC
3FE007FC
ENDCHAR
STARTCHAR 00F2
ENCODING 242
SWIDTH 531 0
DWIDTH 34 0
BBX 25 51 4 0
BITMAP
01E00000
01E00000
01E00000
01E00000
001E0000
001E0000
001E0000
001E0000
00000000
0001E000
0001E000
0001E000
0001E000
00000000
00000000
00000000
00000000
01FFE000
01FFE000
01FFE000
01FFE000
3F007E00
3F007E00
3F007E00
3F007E00
F0000780
F0000780
F0000780
F0000780
F0000780
F0000780
F0000780
F0000780
F0000780
F0000780
F0000780
F0000780
F0000780
F0000780
F0000780
F0000780
F0000780
30000600
3F007E00
3F007E00
3F007E00
3F007E00
01FFE000
01FFE000
01FFE000
01FFE000
ENDCHAR
STARTCHAR 00F3
ENCODING 243
SWIDTH 531 0
DWIDTH 34 0
BBX 25 51 4 0
BITMAP
0001E000
0001E000
0001E000
0001E000
001E0000
001E0000
001E0000
001E0000
00000000
01E00000
01E00000
01E00000
01E00000
00000000
00000000
00000000
00000000
01FFE000
01FFE000
01FFE000
01FFE000
3F007E00
3F007E00
3F007E00
3F007E00
F0000780
F0000780
F0000780
F0000780
F0000780
F0000780
F0000780
F0000780
F0000780
F0000780
F0000780
F0000780
F0000780
F0000780
F0000780
F0000780
F0000780
30000600
3F007E00
3F007E00
3F007E00
3F007E00
01FFE000
01FFE000
01FFE000
01FFE000
ENDCHAR
STARTCHAR 00F4
ENCODING 244
SWIDTH 531 0
DWIDTH 34 0
BBX 25 51 4 0
BITMAP
001E0000
001E0000
001E0000
001E0000
01E1E000
01E1E000
01E1E000
01E1E000
00000000
3C001E00
3C001E00
3C001E00
3C001E00
00000000
00000000
00000000
00000000
01FFE000
01FFE000
01FFE000
01FFE000
3F007E00
3F007E00
3F007E00
3F007E00
F0000780
F0000780
F0000780
F0000780
F0000780
F0000780
F0000780
F0000780
F0000780
F0000780
F0000780
F0000780
F0000780
F0000780
F0000780
F0000780
F0000780
30000600
3F007E00
3F007E00
3F007E00
3F007E00
01FFE000
01FFE000
01FFE000
01FFE000
ENDCHAR
STARTCHAR 00F6
ENCODING 246
SWIDTH 531 0
DWIDTH 34 0
BBX 25 42 4 0
BITMAP
3F007E00
3F007E00
3F007E00
3F007E00
00000000
00000000
00000000
00000000
03FFE000
03FFE000
03FFE000
03FFE000
3F007E00
3F007E00
3F007E00
3F007E00
F0000780
F0000780
F0000780
F0000780
F0000780
F0000780
F0000780
F0000780
F0000780
F0000780
F0000780
F0000780
F0000780
F0000780
F0000780
F0000780
F0000780
30000600
3F007E00
3F007E00
3F007E00
3F007E00
03FFE000
03FFE000
03FFE000
03FFE000
ENDCHAR
STARTCHAR 00F7
ENCODING 247
SWIDTH 531 0
DWIDTH 34 0
BBX 26 31 4 3
BITMAP
007FC000
007FC000
007FC000
007FC000
007FC000
007FC000
007FC000
007FC000
007FC000
00000000
00000000
00000000
00000000
FFFFFFC0
FFFFFFC0
FFFFFFC0
FFFFFFC0
00000000
00000000
00000000
00000000
00000000
007FC000
007FC000
007FC000
007FC000
007FC000
007FC000
007FC000
007FC000
007FC000
ENDCHAR
STARTCHAR 00F9
ENCODING 249
SWIDTH 515 0
DWIDTH 33 0
BBX 29 51 2 0
BITMAP
00780000
00780000
00780000
00780000
00078000
00078000
00078000
00078000
00000000
00007800
00007800
00007800
00007800
00000000
00000000
00000000
00000000
FC0007E0
FC0007E0
FC0007E0
FC0007E0
3C0001E0
3C0001E0
3C0001E0
3C0001E0
3C0001E0
3C0001E0
3C0001E0
3C0001E0
3C0001E0
3C0001E0
3C0001E0
3C0001E0
3C0001E0
3C0001E0
3C0001E0
3C0001E0
3C0001E0
3C0007E0
3C0007E0
3C0007E0
3C0007E0
0F001FE0
0F001FE0
0F001FE0
0F001FE0
0F001FE0
03FFF9F8
03FFF9F8
03FFF9F8
03FFF9F8
ENDCHAR
STARTCHAR 00FA
ENCODING 250
SWIDTH 515 0
DWIDTH 33 0
BBX 29 51 2 0
BITMAP
00007800
00007800
00007800
00007800
00078000
00078000
00078000
00078000
00000000
00780000
00780000
00780000
00780000
00000000
00000000
00000000
00000000
FC0007E0
FC0007E0
FC0007E0
FC0007E0
3C0001E0
3C0001E0
3C0001E0
3C0001E0
3C0001E0
3C0001E0
3C0001E0
3C0001E0
3C0001E0
3C0001E0
3C0001E0
3C0001E0
3C0001E0
3C0001E0
3C0001E0
3C0001E0
3C0001E0
3C0007E0
3C0007E0
3C0007E0
3C0007E0
0F001FE0
0F001FE0
0F001FE0
0F001FE0
0F001FE0
03FFF9F8
03FFF9F8
03FFF9F8
03FFF9F8
ENDCHAR
STARTCHAR 00FB
ENCODING 251
SWIDTH 515 0
DWIDTH 33 0
BBX 29 51 2 0
BITMAP
00078000
00078000
00078000
00078000
00787800
00787800
00787800
00787800
00000000
0F000780
0F000780
0F000780
0F000780
00000000
00000000
00000000
00000000
FC0007E0
FC0007E0
FC0007E0
FC0007E0
3C0001E0
3C0001E0
3C0001E0
3C0001E0
3C0001E0
3C0001E0
3C0001E0
3C0001E0
3C0001E0
3C0001E0
3C0001E0
3C0001E0
3C0001E0
3C0001E0
3C0001E0
3C0001E0
3C0001E0
3C0007E0
3C0007E0
3C0007E0
3C0007E0
0F001FE0
0F001FE0
0F001FE0
0F001FE0
0F001FE0
03FFF9F8
03FFF9F8
03FFF9F8
03FFF9F8
ENDCHAR
STARTCHAR 00FC
ENCODING 252
SWIDTH 515 0
DWIDTH 33 0
BBX 29 42 2 0
BITMAP
0FC07E00
0FC07E00
0FC07E00
0FC07E00
00000000
00000000
00000000
00000000
FC0007E0
FC0007E0
FC0007E0
FC0007E0
3C0001E0
3C0001E0
3C0001E0
3C0001E0
3C0001E0
3C0001E0
3C0001E0
3C0001E0
3C0001E0
3C0001E0
3C0001E0
3C0001E0
3C0001E0
3C0001E0
3C0001E0
3C0001E0
3C0001E0
3C0007E0
3C0007E0
3C0007E0
3C0007E0
0F001FE0
0F001FE0
0F001FE0
0F001FE0
0F001FE0
03FFF9F8
03FFF9F8
03FFF9F8
03FFF9F8
ENDCHAR
STARTCHAR 00FF
ENCODING 255
SWIDTH 531 0
DWIDTH 34 0
BBX 30 55 2 -13
BITMAP
0FE01F80
0FE01F80
0FE01F80
0FE01F80
00000000
00000000
00000000
00000000
FFE01FFC
FFE01FFC
FFE01FFC
FFE01FFC
0F000780
0F000780
0F000780
0F000780
01E00780
01E00780
01E00780
01E00780
01E00780
00781E00
00781E00
00781E00
00781E00
001E1E00
001E1E00
001E1E00
001E1E00
0007F800
0007F800
0007F800
0007F800
0007F800
0001F800
0001F800
0001F800
0001F800
0001E000
0001E000
0001E000
0001E000
3C01E000
3C01E000
3C01E000
3C01E000
3C078000
3C078000
3C078000
3C078000
3C078000
0FFE0000
0FFE0000
0FFE0000
0FFE0000
ENDCHAR
STARTCHAR 0192
ENCODING 402
SWIDTH 515 0
DWIDTH 33 0
BBX 25 59 4 -12
BITMAP
0007FC00
0007FC00
0007FC00
0007FC00
001E1F80
001E1F80
001E1F80
001E1F80
001E0000
001E0000
001E0000
001E0000
001E0000
001E0000
001E0000
001E0000
001E0000
001E0000
001E0000
001E0000
001E0000
001E0000
001E0000
001E0000
001E0000
001E0000
0FFFFC00
0FFFFC00
0FFFFC00
0FFFFC00
001E0000
001E0000
001E0000
001E0000
001E0000
001E0000
001E0000
001E0000
001E0000
001E0000
001E0000
001E0000
001E0000
001E0000
001E0000
001E0000
001E0000
001E0000
001E0000
001E0000
001E0000
FC1E0000
FC1E0000
FC1E0000
FC1E0000
0FF80000
0FF80000
0FF80000
0FF80000
ENDCHAR
STARTCHAR 0393
ENCODING 915
SWIDTH 531 0
DWIDTH 34 0
BBX 25 47 4 0
BITMAP
FFFFFF80
FFFFFF80
FFFFFF80
FFFFFF80
F0000780
F0000780
F0000780
F0000780
F0000780
F0000000
F0000000
F0000000
F0000000
F0000000
F0000000
F0000000
F0000000
F0000000
F0000000
F0000000
F0000000
F0000000
F0000000
F0000000
F0000000
F0000000
F0000000
F0000000
F0000000
F0000000
F0000000
F0000000
F0000000
F0000000
F0000000
F0000000
F0000000
F0000000
F0000000
F0000000
F0000000
F0000000
F0000000
F0000000
F0000000
F0000000
F0000000
ENDCHAR
STARTCHAR 0398
ENCODING 920
SWIDTH 531 0
DWIDTH 34 0
BBX 25 47 4 0
BITMAP
00FF8000
00FF8000
00FF8000
00FF8000
00C18000
0FC1F800
0FC1F800
0FC1F800
0FC1F800
3C001E00
3C001E00
3C001E00
3C001E00
F0000780
F0000780
F0000780
F0000780
F0000780
F0000780
F0000780
F0000780
F0000780
FFFFFF80
FFFFFF80
FFFFFF80
FFFFFF80
F0000780
F0000780
F0000780
F0000780
F0000780
F0000780
F0000780
F0000780
3C001E00
3C001E00
3C001E00
3C001E00
3C001E00
0FC1F800
0FC1F800
0FC1F800
0FC1F800
00FF8000
00FF8000
00FF8000
00FF8000
ENDCHAR
STARTCHAR 03A3
ENCODING 931
SWIDTH 531 0
DWIDTH 34 0
BBX 25 47 4 0
BITMAP
FFFFFF80
FFFFFF80
FFFFFF80
FFFFFF80
F0000780
F0000780
F0000780
F0000780
F0000780
3C000000
3C000000
3C000000
3C000000
0F000000
0F000000
0F000000
0F000000
01E00000
01E00000
01E00000
01E00000
01E00000
00780000
00780000
00780000
00780000
01E00000
01E00000
01E00000
01E00000
0F000000
0F000000
0F000000
0F000000
3C000000
3C000000
3C000000
3C000000
FC000780
F0000780
F0000780
F0000780
F0000780
FFFFFF80
FFFFFF80
FFFFFF80
FFFFFF80
ENDCHAR
STARTCHAR 03A6
ENCODING 934
SWIDTH 531 0
DWIDTH 34 0
BBX 25 47 4 0
BITMAP
FFFFFF80
FFFFFF80
FFFFFF80
FFFFFF80
001E0000
001E0000
001E0000
001E0000
001E0000
001E0000
001E0000
001E0000
001E0000
0FFFF800
0FFFF800
0FFFF800
0FFFF800
3C1E1E00
3C1E1E00
3C1E1E00
3C1E1E00
3C1E1E00
F01E0780
F01E0780
F01E0780
F01E0780
3C1E1E00
3C1E1E00
3C1E1E00
3C1E1E00
0FFFF800
0FFFF800
0FFFF800
0FFFF800
001E0000
001E0000
001E0000
001E0000
001E0000
001E0000
001E0000
001E0000
001E0000
FFFFFF80
FFFFFF80
FFFFFF80
FFFFFF80
ENDCHAR
STARTCHAR 03A9
ENCODING 937
SWIDTH 531 0
DWIDTH 34 0
BBX 25 47 4 0
BITMAP
01FFE000
01FFE000
01FFE000
01FFE000
01006000
3F007E00
3F007E00
3F007E00
3F007E00
F0000780
F0000780
F0000780
F0000780
F0000780
F0000780
F0000780
F0000780
F0000780
F0000780
F0000780
F0000780
FC001F80
3C001E00
3C001E00
3C001E00
3C001E00
0F007800
0F007800
0F007800
0F007800
01E1E000
01E1E000
01E1E000
01E1E000
01E1E000
01E1E000
01E1E000
01E1E000
01E1E000
01E1E000
01E1E000
01E1E000
01E1E000
FFE1FF80
FFE1FF80
FFE1FF80
FFE1FF80
ENDCHAR
STARTCHAR 03B1
ENCODING 945
SWIDTH 531 0
DWIDTH 34 0
BBX 25 34 4 0
BITMAP
03FF8780
03FF8780
03FF8780
03FF8780
3F01FF00
3F01FF00
3F01FF00
3F01FF00
F0007800
F0007800
F0007800
F0007800
F0007800
F0007800
F0007800
F0007800
F0007800
F0007800
F0007800
F0007800
F0007800
F0007800
F0007800
F0007800
F0007800
30007800
3F01FF00
3F01FF00
3F01FF00
3F01FF00
03FF8780
03FF8780
03FF8780
03FF8780
ENDCHAR
STARTCHAR 03B2
ENCODING 946
SWIDTH 531 0
DWIDTH 34 0
BBX 23 42 4 -4
BITMAP
3FFF80
3FFF80
3FFF80
3FFF80
F00078
F00078
F00078
F00078
F0001E
F0001E
F0001E
F0001E
FFFFF8
FFFFF8
FFFFF8
FFFFF8
F0001E
F0001E
F0001E
F0001E
F0001E
F0001E
F0001E
F0001E
F0001E
F0001E
F0001E
F0001E
F0001E
FFFFF8
FFFFF8
FFFFF8
FFFFF8
F00000
F00000
F00000
F00000
F00000
F00000
F00000
F00000
F00000
ENDCHAR
STARTCHAR 03B4
ENCODING 948
SWIDTH 531 0
DWIDTH 34 0
BBX 25 47 4 0
BITMAP
007FE000
007FE000
007FE000
007FE000
01E07E00
01E07E00
01E07E00
01E07E00
01E07E00
01E00000
01E00000
01E00000
01E00000
00780000
00780000
00780000
00780000
001F8000
001F8000
001F8000
001F8000
0001F800
0001F800
0001F800
0001F800
0001F800
0FFFFE00
0FFFFE00
0FFFFE00
0FFFFE00
FE001F80
FE001F80
FE001F80
FE001F80
F0000780
F0000780
F0000780
F0000780
FE001F80
FE001F80
FE001F80
FE001F80
FE001F80
0FFFF800
0FFFF800
0FFFF800
0FFFF800
ENDCHAR
STARTCHAR 03C0
ENCODING 960
SWIDTH 531 0
DWIDTH 34 0
BBX 25 34 4 0
BITMAP
3FFFFF80
3FFFFF80
3FFFFF80
3FFFFF80
F0787800
F0787800
F0787800
F0787800
00787800
00787800
00787800
00787800
00787800
00787800
00787800
00787800
00787800
00787800
00787800
00787800
00787800
00787800
00787800
00787800
00787800
00787800
00787800
00787800
00787800
00787800
00787800
00787800
00787800
00787800
ENDCHAR
STARTCHAR 03C3
ENCODING 963
SWIDTH 531 0
DWIDTH 34 0
BBX 28 34 4 0
BITMAP
03FFFFF0
03FFFFF0
03FFFFF0
03FFFFF0
3F01F800
3F01F800
3F01F800
3F01F800
F0001E00
F0001E00
F0001E00
F0001E00
F0001E00
F0001E00
F0001E00
F0001E00
F0001E00
F0001E00
F0001E00
F0001E00
F0001E00
F0001E00
F0001E00
F0001E00
F0001E00
30001800
3F01F800
3F01F800
3F01F800
3F01F800
03FF8000
03FF8000
03FF8000
03FF8000
ENDCHAR
STARTCHAR 03C4
ENCODING 964
SWIDTH 531 0
DWIDTH 34 0
BBX 26 34 4 0
BITMAP
3FF87FC0
3FF87FC0
3FF87FC0
3FF87FC0
F03FE000
F03FE000
F03FE000
F03FE000
F03FE000
00078000
00078000
00078000
00078000
00078000
00078000
00078000
00078000
00078000
00078000
00078000
00078000
00078000
00078000
00078000
00078000
00078000
00078000
00078000
00078000
00078000
0001E000
0001E000
0001E000
0001E000
ENDCHAR
STARTCHAR 2022
ENCODING 8226
SWIDTH 546 0
DWIDTH 35 0
BBX 17 17 9 9
BITMAP
3FFE00
3FFE00
3FFE00
3FFE00
FFFF80
FFFF80
FFFF80
FFFF80
FFFF80
FFFF80
FFFF80
FFFF80
FFFF80
3FFE00
3FFE00
3FFE00
3FFE00
ENDCHAR
STARTCHAR 203C
ENCODING 8252
SWIDTH 531 0
DWIDTH 34 0
BBX 21 47 6 0
BITMAP
F00078
F00078
F00078
F00078
F00078
F00078
F00078
F00078
F00078
F00078
F00078
F00078
F00078
F00078
F00078
F00078
F00078
F00078
F00078
F00078
F00078
F00078
F00078
F00078
F00078
F00078
F00078
F00078
F00078
F00078
F00078
F00078
F00078
F00078
000000
000000
000000
000000
F00078
F00078
F00078
F00078
F00078
F00078
F00078
F00078
F00078
ENDCHAR
STARTCHAR 207F
ENCODING 8319
SWIDTH 531 0
DWIDTH 34 0
BBX 23 25 4 21
BITMAP
FCFFE0
FCFFE0
FCFFE0
FCFFE0
0FC07E
0FC07E
0FC07E
0FC07E
0F001E
0F001E
0F001E
0F001E
0F001E
0F001E
0F001E
0F001E
0F001E
0F001E
0F001E
0F001E
0F001E
0F001E
0F001E
0F001E
0F001E
ENDCHAR
STARTCHAR 20A7
ENCODING 8359
SWIDTH 515 0
DWIDTH 33 0
BBX 25 47 4 0
BITMAP
FFFE0000
FFFE0000
FFFE0000
FFFE0000
F007E000
F007E000
F007E000
F007E000
F007E000
F001F800
F001F800
F001F800
F001F800
F007E000
F007E000
F007E000
F007E000
FFFE0000
FFFE0000
FFFE0000
FFFE0000
F0000000
F0007800
F0007800
F0007800
F0007800
F0007800
F0007800
F0007800
F0007800
F007FF80
F007FF80
F007FF80
F007FF80
F0007800
F0007800
F0007800
F0007800
F0007800
F0007800
F0007800
F0007800
F0007800
F0001F80
F0001F80
F0001F80
F0001F80
ENDCHAR
STARTCHAR 2190
ENCODING 8592
SWIDTH 531 0
DWIDTH 34 0
BBX 26 29 4 9
BITMAP
00078000
00078000
00078000
00078000
00780000
00780000
00780000
00780000
07800000
07800000
07800000
07800000
FFFFFFC0
FFFFFFC0
FFFFFFC0
FFFFFFC0
FFFFFFC0
07800000
07800000
07800000
07800000
00780000
00780000
00780000
00780000
00078000
00078000
00078000
00078000
ENDCHAR
STARTCHAR 2191
ENCODING 8593
SWIDTH 531 0
DWIDTH 34 0
BBX 21 47 7 0
BITMAP
00F000
00F000
00F000
00F000
03FE00
03FE00
03FE00
03FE00
03FE00
0FFF80
0FFF80
0FFF80
0FFF80
FFFFF8
FFFFF8
FFFFF8
FFFFF8
00F000
00F000
00F000
00F000
00F000
00F000
00F000
00F000
00F000
00F000
00F000
00F000
00F000
00F000
00F000
00F000
00F000
00F000
00F000
00F000
00F000
00F000
00F000
00F000
00F000
00F000
00F000
00F000
00F000
00F000
ENDCHAR
STARTCHAR 2192
ENCODING 8594
SWIDTH 531 0
DWIDTH 34 0
BBX 26 29 4 9
BITMAP
00780000
00780000
00780000
00780000
00078000
00078000
00078000
00078000
00007C00
00007C00
00007C00
00007C00
FFFFFFC0
FFFFFFC0
FFFFFFC0
FFFFFFC0
FFFFFFC0
00007C00
00007C00
00007C00
00007C00
00078000
00078000
00078000
00078000
00780000
00780000
00780000
00780000
ENDCHAR
STARTCHAR 2193
ENCODING 8595
SWIDTH 531 0
DWIDTH 34 0
BBX 21 47 7 0
BITMAP
00F000
00F000
00F000
00F000
00F000
00F000
00F000
00F000
00F000
00F000
00F000
00F000
00F000
00F000
00F000
00F000
00F000
00F000
00F000
00F000
00F000
00F000
00F000
00F000
00F000
00F000
00F000
00F000
00F000
00F000
FFFFF8
FFFFF8
FFFFF8
FFFFF8
0FFF80
0FFF80
0FFF80
0FFF80
03FE00
03FE00
03FE00
03FE00
03FE00
00F000
00F000
00F000
00F000
ENDCHAR
STARTCHAR 2194
ENCODING 8596
SWIDTH 531 0
DWIDTH 34 0
BBX 30 21 2 13
BITMAP
00787800
00787800
00787800
00787800
0FF87FC0
0FF87FC0
0FF87FC0
0FF87FC0
FFFFFFFC
FFFFFFFC
FFFFFFFC
FFFFFFFC
FFFFFFFC
0FF87FC0
0FF87FC0
0FF87FC0
0FF87FC0
00787800
00787800
00787800
00787800
ENDCHAR
STARTCHAR 2195
ENCODING 8597
SWIDTH 531 0
DWIDTH 34 0
BBX 21 47 7 0
BITMAP
00F000
00F000
00F000
00F000
03FE00
03FE00
03FE00
03FE00
03FE00
0FFF80
0FFF80
0FFF80
0FFF80
FFFFF8
FFFFF8
FFFFF8
FFFFF8
00F000
00F000
00F000
00F000
00F000
00F000
00F000
00F000
00F000
00F000
00F000
00F000
00F000
FFFFF8
FFFFF8
FFFFF8
FFFFF8
0FFF80
0FFF80
0FFF80
0FFF80
03FE00
03FE00
03FE00
03FE00
03FE00
00F000
00F000
00F000
00F000
ENDCHAR
STARTCHAR 21A8
ENCODING 8616
SWIDTH 531 0
DWIDTH 34 0
BBX 21 51 7 -4
BITMAP
00F000
00F000
00F000
00F000
03FE00
03FE00
03FE00
03FE00
03FE00
0FFF80
0FFF80
0FFF80
0FFF80
FFFFF8
FFFFF8
FFFFF8
FFFFF8
00F000
00F000
00F000
00F000
00F000
00F000
00F000
00F000
00F000
00F000
00F000
00F000
00F000
FFFFF8
FFFFF8
FFFFF8
FFFFF8
0FFF80
0FFF80
0FFF80
0FFF80
03FE00
03FE00
03FE00
03FE00
03FE00
00F000
00F000
00F000
00F000
FFFFF8
FFFFF8
FFFFF8
FFFFF8
ENDCHAR
STARTCHAR 2205
ENCODING 8709
SWIDTH 531 0
DWIDTH 34 0
BBX 25 43 4 0
BITMAP
00001E00
00001E00
00001E00
00001E00
00007800
00007800
00007800
00007800
00007800
0FFFF800
0FFFF800
0FFFF800
0FFFF800
FE078780
FE078780
FE078780
FE078780
F01E0780
F01E0780
F01E0780
F01E0780
F07E0780
F0780780
F0780780
F0780780
F0780780
F1E01F80
F1E01F80
F1E01F80
F1E01F80
0FFFF800
0FFFF800
0FFFF800
0FFFF800
3E000000
3E000000
3E000000
3E000000
3E000000
F0000000
F0000000
F0000000
F0000000
ENDCHAR
STARTCHAR 2208
ENCODING 8712
SWIDTH 531 0
DWIDTH 34 0
BBX 17 47 9 0
BITMAP
00FF80
00FF80
00FF80
00FF80
0FE000
0FE000
0FE000
0FE000
0FE000
3C0000
3C0000
3C0000
3C0000
F00000
F00000
F00000
F00000
F00000
F00000
F00000
F00000
FFFF80
FFFF80
FFFF80
FFFF80
FFFF80
F00000
F00000
F00000
F00000
F00000
F00000
F00000
F00000
3C0000
3C0000
3C0000
3C0000
3C0000
0FE000
0FE000
0FE000
0FE000
00FF80
00FF80
00FF80
00FF80
ENDCHAR
STARTCHAR 2219
ENCODING 8729
SWIDTH 531 0
DWIDTH 34 0
BBX 9 9 13 13
BITMAP
FF80
FF80
FF80
FF80
FF80
FF80
FF80
FF80
FF80
ENDCHAR
STARTCHAR 221A
ENCODING 8730
SWIDTH 531 0
DWIDTH 34 0
BBX 26 47 4 0
BITMAP
0007FFC0
0007FFC0
0007FFC0
0007FFC0
00078000
00078000
00078000
00078000
00078000
00078000
00078000
00078000
00078000
00078000
00078000
00078000
00078000
00078000
00078000
00078000
00078000
00078000
00078000
00078000
00078000
00078000
00078000
00078000
00078000
00078000
F0078000
F0078000
F0078000
F0078000
0F878000
0F878000
0F878000
0F878000
0F878000
007F8000
007F8000
007F8000
007F8000
00078000
00078000
00078000
00078000
ENDCHAR
STARTCHAR 221E
ENCODING 8734
SWIDTH 531 0
DWIDTH 34 0
BBX 30 21 2 13
BITMAP
0FF87FC0
0FF87FC0
0FF87FC0
0FF87FC0
FC3FE0FC
FC3FE0FC
FC3FE0FC
FC3FE0FC
F007803C
F007803C
F007803C
F007803C
F007803C
FC3FE0FC
FC3FE0FC
FC3FE0FC
FC3FE0FC
0FF87FC0
0FF87FC0
0FF87FC0
0FF87FC0
ENDCHAR
STARTCHAR 221F
ENCODING 8735
SWIDTH 531 0
DWIDTH 34 0
BBX 26 21 4 13
BITMAP
F0000000
F0000000
F0000000
F0000000
F0000000
F0000000
F0000000
F0000000
F0000000
F0000000
F0000000
F0000000
F0000000
F0000000
F0000000
F0000000
F0000000
FFFFFFC0
FFFFFFC0
FFFFFFC0
FFFFFFC0
ENDCHAR
STARTCHAR 2229
ENCODING 8745
SWIDTH 531 0
DWIDTH 34 0
BBX 25 38 4 0
BITMAP
03FFE000
03FFE000
03FFE000
03FFE000
3F007E00
3F007E00
3F007E00
3F007E00
F0000780
F0000780
F0000780
F0000780
F0000780
F0000780
F0000780
F0000780
F0000780
F0000780
F0000780
F0000780
F0000780
F0000780
F0000780
F0000780
F0000780
F0000780
F0000780
F0000780
F0000780
F0000780
F0000780
F0000780
F0000780
F0000780
F0000780
F0000780
F0000780
F0000780
ENDCHAR
STARTCHAR 2248
ENCODING 8776
SWIDTH 531 0
DWIDTH 34 0
BBX 25 30 4 4
BITMAP
0FE00000
0FE00000
0FE00000
0FE00000
F01E0780
F01E0780
F01E0780
F01E0780
F01E0780
0001F800
0001F800
0001F800
0001F800
00000000
00000000
00000000
00000000
0FE00000
0FE00000
0FE00000
0FE00000
F01E0780
F01E0780
F01E0780
F01E0780
F01E0780
0001F800
0001F800
0001F800
0001F800
ENDCHAR
STARTCHAR 2261
ENCODING 8801
SWIDTH 531 0
DWIDTH 34 0
BBX 26 39 4 4
BITMAP
FFFFFFC0
FFFFFFC0
FFFFFFC0
FFFFFFC0
00000000
00000000
00000000
00000000
00000000
00000000
00000000
00000000
00000000
00000000
00000000
00000000
00000000
00000000
FFFFFFC0
FFFFFFC0
FFFFFFC0
FFFFFFC0
00000000
00000000
00000000
00000000
00000000
00000000
00000000
00000000
00000000
00000000
00000000
00000000
00000000
FFFFFFC0
FFFFFFC0
FFFFFFC0
FFFFFFC0
ENDCHAR
STARTCHAR 2264
ENCODING 8804
SWIDTH 531 0
DWIDTH 34 0
BBX 26 47 4 0
BITMAP
00000FC0
00000FC0
00000FC0
00000FC0
0007F000
0007F000
0007F000
0007F000
0007F000
007E0000
007E0000
007E0000
007E0000
07E00000
07E00000
07E00000
07E00000
FE000000
FE000000
FE000000
FE000000
07E00000
07E00000
07E00000
07E00000
07E00000
007E0000
007E0000
007E0000
007E0000
0007F000
0007F000
0007F000
0007F000
00000FC0
00000FC0
00000FC0
00000FC0
00000000
00000000
00000000
00000000
00000000
FFFFFFC0
FFFFFFC0
FFFFFFC0
FFFFFFC0
ENDCHAR
STARTCHAR 2265
ENCODING 8805
SWIDTH 531 0
DWIDTH 34 0
BBX 26 47 4 0
BITMAP
FE000000
FE000000
FE000000
FE000000
01F80000
01F80000
01F80000
01F80000
01F80000
001F8000
001F8000
001F8000
001F8000
0001FC00
0001FC00
0001FC00
0001FC00
00000FC0
00000FC0
00000FC0
00000FC0
0001FC00
0001FC00
0001FC00
0001FC00
0001FC00
001F8000
001F8000
001F8000
001F8000
01F80000
01F80000
01F80000
01F80000
FE000000
FE000000
FE000000
FE000000
00000000
00000000
00000000
00000000
00000000
FFFFFFC0
FFFFFFC0
FFFFFFC0
FFFFFFC0
ENDCHAR
STARTCHAR 2302
ENCODING 8962
SWIDTH 531 0
DWIDTH 34 0
BBX 25 35 4 4
BITMAP
001E0000
001E0000
001E0000
001E0000
001E0000
007F8000
007F8000
007F8000
007F8000
01E1E000
01E1E000
01E1E000
01E1E000
0F807800
0F807800
0F807800
0F807800
0F807800
3E001E00
3E001E00
3E001E00
3E001E00
F0000780
F0000780
F0000780
F0000780
F0000780
F0000780
F0000780
F0000780
F0000780
FFFFFF80
FFFFFF80
FFFFFF80
FFFFFF80
ENDCHAR
STARTCHAR 2310
ENCODING 8976
SWIDTH 531 0
DWIDTH 34 0
BBX 26 21 4 4
BITMAP
FFFFFFC0
FFFFFFC0
FFFFFFC0
FFFFFFC0
F0000000
F0000000
F0000000
F0000000
F0000000
F0000000
F0000000
F0000000
F0000000
F0000000
F0000000
F0000000
F0000000
F0000000
F0000000
F0000000
F0000000
ENDCHAR
STARTCHAR 2320
ENCODING 8992
SWIDTH 531 0
DWIDTH 34 0
BBX 15 60 15 -17
BITMAP
3FF8
3FF8
3FF8
3FF8
3FF8
F01E
F01E
F01E
F01E
F000
F000
F000
F000
F000
F000
F000
F000
F000
F000
F000
F000
F000
F000
F000
F000
F000
F000
F000
F000
F000
F000
F000
F000
F000
F000
F000
F000
F000
F000
F000
F000
F000
F000
F000
F000
F000
F000
F000
F000
F000
F000
F000
F000
F000
F000
F000
F000
F000
F000
F000
ENDCHAR
STARTCHAR 2321
ENCODING 8993
SWIDTH 531 0
DWIDTH 34 0
BBX 15 59 4 -8
BITMAP
001E
001E
001E
001E
001E
001E
001E
001E
001E
001E
001E
001E
001E
001E
001E
001E
001E
001E
001E
001E
001E
001E
001E
001E
001E
001E
001E
001E
001E
001E
001E
001E
001E
001E
001E
001E
001E
001E
001E
001E
001E
001E
001E
001E
001E
001E
001E
001E
001E
001E
001E
F01E
F01E
F01E
F01E
3FF8
3FF8
3FF8
3FF8
ENDCHAR
STARTCHAR 2500
ENCODING 9472
SWIDTH 531 0
DWIDTH 34 0
BBX 34 4 0 13
BITMAP
FFFFFFFFC0
FFFFFFFFC0
FFFFFFFFC0
FFFFFFFFC0
ENDCHAR
STARTCHAR 2502
ENCODING 9474
SWIDTH 531 0
DWIDTH 34 0
BBX 4 68 15 -17
BITMAP
F0
F0
F0
F0
F0
F0
F0
F0
F0
F0
F0
F0
F0
F0
F0
F0
F0
F0
F0
F0
F0
F0
F0
F0
F0
F0
F0
F0
F0
F0
F0
F0
F0
F0
F0
F0
F0
F0
F0
F0
F0
F0
F0
F0
F0
F0
F0
F0
F0
F0
F0
F0
F0
F0
F0
F0
F0
F0
F0
F0
F0
F0
F0
F0
F0
F0
F0
F0
ENDCHAR
STARTCHAR 250C
ENCODING 9484
SWIDTH 531 0
DWIDTH 34 0
BBX 19 34 15 -17
BITMAP
FFFFE0
FFFFE0
FFFFE0
FFFFE0
F00000
F00000
F00000
F00000
F00000
F00000
F00000
F00000
F00000
F00000
F00000
F00000
F00000
F00000
F00000
F00000
F00000
F00000
F00000
F00000
F00000
F00000
F00000
F00000
F00000
F00000
F00000
F00000
F00000
F00000
ENDCHAR
STARTCHAR 2510
ENCODING 9488
SWIDTH 531 0
DWIDTH 34 0
BBX 19 34 0 -17
BITMAP
FFFFE0
FFFFE0
FFFFE0
FFFFE0
0001E0
0001E0
0001E0
0001E0
0001E0
0001E0
0001E0
0001E0
0001E0
0001E0
0001E0
0001E0
0001E0
0001E0
0001E0
0001E0
0001E0
0001E0
0001E0
0001E0
0001E0
0001E0
0001E0
0001E0
0001E0
0001E0
0001E0
0001E0
0001E0
0001E0
ENDCHAR
STARTCHAR 2514
ENCODING 9492
SWIDTH 531 0
DWIDTH 34 0
BBX 19 38 15 13
BITMAP
F00000
F00000
F00000
F00000
F00000
F00000
F00000
F00000
F00000
F00000
F00000
F00000
F00000
F00000
F00000
F00000
F00000
F00000
F00000
F00000
F00000
F00000
F00000
F00000
F00000
F00000
F00000
F00000
F00000
F00000
F00000
F00000
F00000
F00000
FFFFE0
FFFFE0
FFFFE0
FFFFE0
ENDCHAR
STARTCHAR 2518
ENCODING 9496
SWIDTH 531 0
DWIDTH 34 0
BBX 19 38 0 13
BITMAP
0001E0
0001E0
0001E0
0001E0
0001E0
0001E0
0001E0
0001E0
0001E0
0001E0
0001E0
0001E0
0001E0
0001E0
0001E0
0001E0
0001E0
0001E0
0001E0
0001E0
0001E0
0001E0
0001E0
0001E0
0001E0
0001E0
0001E0
0001E0
0001E0
0001E0
0001E0
0001E0
0001E0
0001E0
FFFFE0
FFFFE0
FFFFE0
FFFFE0
ENDCHAR
STARTCHAR 251C
ENCODING 9500
SWIDTH 531 0
DWIDTH 34 0
BBX 19 68 15 -17
BITMAP
F00000
F00000
F00000
F00000
F00000
F00000
F00000
F00000
F00000
F00000
F00000
F00000
F00000
F00000
F00000
F00000
F00000
F00000
F00000
F00000
F00000
F00000
F00000
F00000
F00000
F00000
F00000
F00000
F00000
F00000
F00000
F00000
F00000
F00000
FFFFE0
FFFFE0
FFFFE0
FFFFE0
F00000
F00000
F00000
F00000
F00000
F00000
F00000
F00000
F00000
F00000
F00000
F00000
F00000
F00000
F00000
F00000
F00000
F00000
F00000
F00000
F00000
F00000
F00000
F00000
F00000
F00000
F00000
F00000
F00000
F00000
ENDCHAR
STARTCHAR 2524
ENCODING 9508
SWIDTH 531 0
DWIDTH 34 0
BBX 19 68 0 -17
BITMAP
0001E0
0001E0
0001E0
0001E0
0001E0
0001E0
0001E0
0001E0
0001E0
0001E0
0001E0
0001E0
0001E0
0001E0
0001E0
0001E0
0001E0
0001E0
0001E0
0001E0
0001E0
0001E0
0001E0
0001E0
0001E0
0001E0
0001E0
0001E0
0001E0
0001E0
0001E0
0001E0
0001E0
0001E0
FFFFE0
FFFFE0
FFFFE0
FFFFE0
0001E0
0001E0
0001E0
0001E0
0001E0
0001E0
0001E0
0001E0
0001E0
0001E0
0001E0
0001E0
0001E0
0001E0
0001E0
0001E0
0001E0
0001E0
0001E0
0001E0
0001E0
0001E0
0001E0
0001E0
0001E0
0001E0
0001E0
0001E0
0001E0
0001E0
ENDCHAR
STARTCHAR 252C
ENCODING 9516
SWIDTH 531 0
DWIDTH 34 0
BBX 34 34 0 -17
BITMAP
FFFFFFFFC0
FFFFFFFFC0
FFFFFFFFC0
FFFFFFFFC0
0001E00000
0001E00000
0001E00000
0001E00000
0001E00000
0001E00000
0001E00000
0001E00000
0001E00000
0001E00000
0001E00000
0001E00000
0001E00000
0001E00000
0001E00000
0001E00000
0001E00000
0001E00000
0001E00000
0001E00000
0001E00000
0001E00000
0001E00000
0001E00000
0001E00000
0001E00000
0001E00000
0001E00000
0001E00000
0001E00000
ENDCHAR
STARTCHAR 2534
ENCODING 9524
SWIDTH 531 0
DWIDTH 34 0
BBX 34 38 0 13
BITMAP
0001E00000
0001E00000
0001E00000
0001E00000
0001E00000
0001E00000
0001E00000
0001E00000
0001E00000
0001E00000
0001E00000
0001E00000
0001E00000
0001E00000
0001E00000
0001E00000
0001E00000
0001E00000
0001E00000
0001E00000
0001E00000
0001E00000
0001E00000
0001E00000
0001E00000
0001E00000
0001E00000
0001E00000
0001E00000
0001E00000
0001E00000
0001E00000
0001E00000
0001E00000
FFFFFFFFC0
FFFFFFFFC0
FFFFFFFFC0
FFFFFFFFC0
ENDCHAR
STARTCHAR 253C
ENCODING 9532
SWIDTH 531 0
DWIDTH 34 0
BBX 34 68 0 -17
BITMAP
0001E00000
0001E00000
0001E00000
0001E00000
0001E00000
0001E00000
0001E00000
0001E00000
0001E00000
0001E00000
0001E00000
0001E00000
0001E00000
0001E00000
0001E00000
0001E00000
0001E00000
0001E00000
0001E00000
0001E00000
0001E00000
0001E00000
0001E00000
0001E00000
0001E00000
0001E00000
0001E00000
0001E00000
0001E00000
0001E00000
0001E00000
0001E00000
0001E00000
0001E00000
FFFFFFFFC0
FFFFFFFFC0
FFFFFFFFC0
FFFFFFFFC0
0001E00000
0001E00000
0001E00000
0001E00000
0001E00000
0001E00000
0001E00000
0001E00000
0001E00000
0001E00000
0001E00000
0001E00000
0001E00000
0001E00000
0001E00000
0001E00000
0001E00000
0001E00000
0001E00000
0001E00000
0001E00000
0001E00000
0001E00000
0001E00000
0001E00000
0001E00000
0001E00000
0001E00000
0001E00000
0001E00000
ENDCHAR
STARTCHAR 2550
ENCODING 9552
SWIDTH 531 0
DWIDTH 34 0
BBX 34 12 0 13
BITMAP
FFFFFFFFC0
FFFFFFFFC0
FFFFFFFFC0
FFFFFFFFC0
0000000000
0000000000
0000000000
0000000000
FFFFFFFFC0
FFFFFFFFC0
FFFFFFFFC0
FFFFFFFFC0
ENDCHAR
STARTCHAR 2551
ENCODING 9553
SWIDTH 531 0
DWIDTH 34 0
BBX 12 68 11 -17
BITMAP
F0F0
F0F0
F0F0
F0F0
F0F0
F0F0
F0F0
F0F0
F0F0
F0F0
F0F0
F0F0
F0F0
F0F0
F0F0
F0F0
F0F0
F0F0
F0F0
F0F0
F0F0
F0F0
F0F0
F0F0
F0F0
F0F0
F0F0
F0F0
F0F0
F0F0
F0F0
F0F0
F0F0
F0F0
F0F0
F0F0
F0F0
F0F0
F0F0
F0F0
F0F0
F0F0
F0F0
F0F0
F0F0
F0F0
F0F0
F0F0
F0F0
F0F0
F0F0
F0F0
F0F0
F0F0
F0F0
F0F0
F0F0
F0F0
F0F0
F0F0
F0F0
F0F0
F0F0
F0F0
F0F0
F0F0
F0F0
F0F0
ENDCHAR
STARTCHAR 2552
ENCODING 9554
SWIDTH 531 0
DWIDTH 34 0
BBX 19 42 15 -17
BITMAP
FFFFE0
FFFFE0
FFFFE0
FFFFE0
F00000
F00000
F00000
F00000
FFFFE0
FFFFE0
FFFFE0
FFFFE0
F00000
F00000
F00000
F00000
F00000
F00000
F00000
F00000
F00000
F00000
F00000
F00000
F00000
F00000
F00000
F00000
F00000
F00000
F00000
F00000
F00000
F00000
F00000
F00000
F00000
F00000
F00000
F00000
F00000
F00000
ENDCHAR
STARTCHAR 2553
ENCODING 9555
SWIDTH 531 0
DWIDTH 34 0
BBX 23 34 11 -17
BITMAP
FFFFFE
FFFFFE
FFFFFE
FFFFFE
F0F000
F0F000
F0F000
F0F000
F0F000
F0F000
F0F000
F0F000
F0F000
F0F000
F0F000
F0F000
F0F000
F0F000
F0F000
F0F000
F0F000
F0F000
F0F000
F0F000
F0F000
F0F000
F0F000
F0F000
F0F000
F0F000
F0F000
F0F000
F0F000
F0F000
ENDCHAR
STARTCHAR 2554
ENCODING 9556
SWIDTH 531 0
DWIDTH 34 0
BBX 23 42 11 -17
BITMAP
FFFFFE
FFFFFE
FFFFFE
FFFFFE
F00000
F00000
F00000
F00000
F0FFFE
F0FFFE
F0FFFE
F0FFFE
F0F000
F0F000
F0F000
F0F000
F0F000
F0F000
F0F000
F0F000
F0F000
F0F000
F0F000
F0F000
F0F000
F0F000
F0F000
F0F000
F0F000
F0F000
F0F000
F0F000
F0F000
F0F000
F0F000
F0F000
F0F000
F0F000
F0F000
F0F000
F0F000
F0F000
ENDCHAR
STARTCHAR 2555
ENCODING 9557
SWIDTH 531 0
DWIDTH 34 0
BBX 19 42 0 -17
BITMAP
FFFFE0
FFFFE0
FFFFE0
FFFFE0
0001E0
0001E0
0001E0
0001E0
FFFFE0
FFFFE0
FFFFE0
FFFFE0
0001E0
0001E0
0001E0
0001E0
0001E0
0001E0
0001E0
0001E0
0001E0
0001E0
0001E0
0001E0
0001E0
0001E0
0001E0
0001E0
0001E0
0001E0
0001E0
0001E0
0001E0
0001E0
0001E0
0001E0
0001E0
0001E0
0001E0
0001E0
0001E0
0001E0
ENDCHAR
STARTCHAR 2556
ENCODING 9558
SWIDTH 531 0
DWIDTH 34 0
BBX 23 34 0 -17
BITMAP
FFFFFE
FFFFFE
FFFFFE
FFFFFE
001E1E
001E1E
001E1E
001E1E
001E1E
001E1E
001E1E
001E1E
001E1E
001E1E
001E1E
001E1E
001E1E
001E1E
001E1E
001E1E
001E1E
001E1E
001E1E
001E1E
001E1E
001E1E
001E1E
001E1E
001E1E
001E1E
001E1E
001E1E
001E1E
001E1E
ENDCHAR
STARTCHAR 2557
ENCODING 9559
SWIDTH 531 0
DWIDTH 34 0
BBX 23 42 0 -17
BITMAP
FFFFFE
FFFFFE
FFFFFE
FFFFFE
00001E
00001E
00001E
00001E
FFFE1E
FFFE1E
FFFE1E
FFFE1E
001E1E
001E1E
001E1E
001E1E
001E1E
001E1E
001E1E
001E1E
001E1E
001E1E
001E1E
001E1E
001E1E
001E1E
001E1E
001E1E
001E1E
001E1E
001E1E
001E1E
001E1E
001E1E
001E1E
001E1E
001E1E
001E1E
001E1E
001E1E
001E1E
001E1E
ENDCHAR
STARTCHAR 2558
ENCODING 9560
SWIDTH 531 0
DWIDTH 34 0
BBX 19 38 15 13
BITMAP
F00000
F00000
F00000
F00000
F00000
F00000
F00000
F00000
F00000
F00000
F00000
F00000
F00000
F00000
F00000
F00000
F00000
F00000
F00000
F00000
F00000
F00000
F00000
F00000
F00000
F00000
FFFFE0
FFFFE0
FFFFE0
FFFFE0
F00000
F00000
F00000
F00000
FFFFE0
FFFFE0
FFFFE0
FFFFE0
ENDCHAR
STARTCHAR 2559
ENCODING 9561
SWIDTH 531 0
DWIDTH 34 0
BBX 23 38 11 13
BITMAP
F0F000
F0F000
F0F000
F0F000
F0F000
F0F000
F0F000
F0F000
F0F000
F0F000
F0F000
F0F000
F0F000
F0F000
F0F000
F0F000
F0F000
F0F000
F0F000
F0F000
F0F000
F0F000
F0F000
F0F000
F0F000
F0F000
F0F000
F0F000
F0F000
F0F000
F0F000
F0F000
F0F000
F0F000
FFFFFE
FFFFFE
FFFFFE
FFFFFE
ENDCHAR
STARTCHAR 255A
ENCODING 9562
SWIDTH 531 0
DWIDTH 34 0
BBX 23 38 11 13
BITMAP
F0F000
F0F000
F0F000
F0F000
F0F000
F0F000
F0F000
F0F000
F0F000
F0F000
F0F000
F0F000
F0F000
F0F000
F0F000
F0F000
F0F000
F0F000
F0F000
F0F000
F0F000
F0F000
F0F000
F0F000
F0F000
F0F000
F0FFFE
F0FFFE
F0FFFE
F0FFFE
F00000
F00000
F00000
F00000
FFFFFE
FFFFFE
FFFFFE
FFFFFE
ENDCHAR
STARTCHAR 255B
ENCODING 9563
SWIDTH 531 0
DWIDTH 34 0
BBX 19 38 0 13
BITMAP
0001E0
0001E0
0001E0
0001E0
0001E0
0001E0
0001E0
0001E0
0001E0
0001E0
0001E0
0001E0
0001E0
0001E0
0001E0
0001E0
0001E0
0001E0
0001E0
0001E0
0001E0
0001E0
0001E0
0001E0
0001E0
0001E0
FFFFE0
FFFFE0
FFFFE0
FFFFE0
0001E0
0001E0
0001E0
0001E0
FFFFE0
FFFFE0
FFFFE0
FFFFE0
ENDCHAR
STARTCHAR 255C
ENCODING 9564
SWIDTH 531 0
DWIDTH 34 0
BBX 23 38 0 13
BITMAP
001E1E
001E1E
001E1E
001E1E
001E1E
001E1E
001E1E
001E1E
001E1E
001E1E
001E1E
001E1E
001E1E
001E1E
001E1E
001E1E
001E1E
001E1E
001E1E
001E1E
001E1E
001E1E
001E1E
001E1E
001E1E
001E1E
001E1E
001E1E
001E1E
001E1E
001E1E
001E1E
001E1E
001E1E
FFFFFE
FFFFFE
FFFFFE
FFFFFE
ENDCHAR
STARTCHAR 255D
ENCODING 9565
SWIDTH 531 0
DWIDTH 34 0
BBX 23 38 0 13
BITMAP
001E1E
001E1E
001E1E
001E1E
001E1E
001E1E
001E1E
001E1E
001E1E
001E1E
001E1E
001E1E
001E1E
001E1E
001E1E
001E1E
001E1E
001E1E
001E1E
001E1E
001E1E
001E1E
001E1E
001E1E
001E1E
001E1E
FFFE1E
FFFE1E
FFFE1E
FFFE1E
00001E
00001E
00001E
00001E
FFFFFE
FFFFFE
FFFFFE
FFFFFE
ENDCHAR
STARTCHAR 255E
ENCODING 9566
SWIDTH 531 0
DWIDTH 34 0
BBX 19 68 15 -17
BITMAP
F00000
F00000
F00000
F00000
F00000
F00000
F00000
F00000
F00000
F00000
F00000
F00000
F00000
F00000
F00000
F00000
F00000
F00000
F00000
F00000
F00000
F00000
F00000
F00000
F00000
FFFFE0
FFFFE0
FFFFE0
FFFFE0
FFFFE0
F00000
F00000
F00000
F00000
FFFFE0
FFFFE0
FFFFE0
FFFFE0
F00000
F00000
F00000
F00000
F00000
F00000
F00000
F00000
F00000
F00000
F00000
F00000
F00000
F00000
F00000
F00000
F00000
F00000
F00000
F00000
F00000
F00000
F00000
F00000
F00000
F00000
F00000
F00000
F00000
F00000
ENDCHAR
STARTCHAR 255F
ENCODING 9567
SWIDTH 531 0
DWIDTH 34 0
BBX 23 68 11 -17
BITMAP
F0F000
F0F000
F0F000
F0F000
F0F000
F0F000
F0F000
F0F000
F0F000
F0F000
F0F000
F0F000
F0F000
F0F000
F0F000
F0F000
F0F000
F0F000
F0F000
F0F000
F0F000
F0F000
F0F000
F0F000
F0F000
F0F000
F0F000
F0F000
F0F000
F0F000
F0F000
F0F000
F0F000
F0F000
F0FFFE
F0FFFE
F0FFFE
F0FFFE
F0F000
F0F000
F0F000
F0F000
F0F000
F0F000
F0F000
F0F000
F0F000
F0F000
F0F000
F0F000
F0F000
F0F000
F0F000
F0F000
F0F000
F0F000
F0F000
F0F000
F0F000
F0F000
F0F000
F0F000
F0F000
F0F000
F0F000
F0F000
F0F000
F0F000
ENDCHAR
STARTCHAR 2560
ENCODING 9568
SWIDTH 531 0
DWIDTH 34 0
BBX 23 68 11 -17
BITMAP
F0F000
F0F000
F0F000
F0F000
F0F000
F0F000
F0F000
F0F000
F0F000
F0F000
F0F000
F0F000
F0F000
F0F000
F0F000
F0F000
F0F000
F0F000
F0F000
F0F000
F0F000
F0F000
F0F000
F0F000
F0F000
F0FFFE
F0FFFE
F0FFFE
F0FFFE
F0FFFE
F00000
F00000
F00000
F00000
F0FFFE
F0FFFE
F0FFFE
F0FFFE
F0F000
F0F000
F0F000
F0F000
F0F000
F0F000
F0F000
F0F000
F0F000
F0F000
F0F000
F0F000
F0F000
F0F000
F0F000
F0F000
F0F000
F0F000
F0F000
F0F000
F0F000
F0F000
F0F000
F0F000
F0F000
F0F000
F0F000
F0F000
F0F000
F0F000
ENDCHAR
STARTCHAR 2561
ENCODING 9569
SWIDTH 531 0
DWIDTH 34 0
BBX 19 68 0 -17
BITMAP
0001E0
0001E0
0001E0
0001E0
0001E0
0001E0
0001E0
0001E0
0001E0
0001E0
0001E0
0001E0
0001E0
0001E0
0001E0
0001E0
0001E0
0001E0
0001E0
0001E0
0001E0
0001E0
0001E0
0001E0
0001E0
FFFFE0
FFFFE0
FFFFE0
FFFFE0
FFFFE0
0001E0
0001E0
0001E0
0001E0
FFFFE0
FFFFE0
FFFFE0
FFFFE0
0001E0
0001E0
0001E0
0001E0
0001E0
0001E0
0001E0
0001E0
0001E0
0001E0
0001E0
0001E0
0001E0
0001E0
0001E0
0001E0
0001E0
0001E0
0001E0
0001E0
0001E0
0001E0
0001E0
0001E0
0001E0
0001E0
0001E0
0001E0
0001E0
0001E0
ENDCHAR
STARTCHAR 2562
ENCODING 9570
SWIDTH 531 0
DWIDTH 34 0
BBX 23 68 0 -17
BITMAP
001E1E
001E1E
001E1E
001E1E
001E1E
001E1E
001E1E
001E1E
001E1E
001E1E
001E1E
001E1E
001E1E
001E1E
001E1E
001E1E
001E1E
001E1E
001E1E
001E1E
001E1E
001E1E
001E1E
001E1E
001E1E
001E1E
001E1E
001E1E
001E1E
001E1E
001E1E
001E1E
001E1E
001E1E
FFFE1E
FFFE1E
FFFE1E
FFFE1E
001E1E
001E1E
001E1E
001E1E
001E1E
001E1E
001E1E
001E1E
001E1E
001E1E
001E1E
001E1E
001E1E
001E1E
001E1E
001E1E
001E1E
001E1E
001E1E
001E1E
001E1E
001E1E
001E1E
001E1E
001E1E
001E1E
001E1E
001E1E
001E1E
001E1E
ENDCHAR
STARTCHAR 2563
ENCODING 9571
SWIDTH 531 0
DWIDTH 34 0
BBX 23 68 0 -17
BITMAP
001E1E
001E1E
001E1E
001E1E
001E1E
001E1E
001E1E
001E1E
001E1E
001E1E
001E1E
001E1E
001E1E
001E1E
001E1E
001E1E
001E1E
001E1E
001E1E
001E1E
001E1E
001E1E
001E1E
001E1E
001E1E
FFFE1E
FFFE1E
FFFE1E
FFFE1E
FFFE1E
00001E
00001E
00001E
00001E
FFFE1E
FFFE1E
FFFE1E
FFFE1E
001E1E
001E1E
001E1E
001E1E
001E1E
001E1E
001E1E
001E1E
001E1E
001E1E
001E1E
001E1E
001E1E
001E1E
001E1E
001E1E
001E1E
001E1E
001E1E
001E1E
001E1E
001E1E
001E1E
001E1E
001E1E
001E1E
001E1E
001E1E
001E1E
001E1E
ENDCHAR
STARTCHAR 2564
ENCODING 9572
SWIDTH 531 0
DWIDTH 34 0
BBX 34 42 0 -17
BITMAP
FFFFFFFFC0
FFFFFFFFC0
FFFFFFFFC0
FFFFFFFFC0
0000000000
0000000000
0000000000
0000000000
FFFFFFFFC0
FFFFFFFFC0
FFFFFFFFC0
FFFFFFFFC0
0001E00000
0001E00000
0001E00000
0001E00000
0001E00000
0001E00000
0001E00000
0001E00000
0001E00000
0001E00000
0001E00000
0001E00000
0001E00000
0001E00000
0001E00000
0001E00000
0001E00000
0001E00000
0001E00000
0001E00000
0001E00000
0001E00000
0001E00000
0001E00000
0001E00000
0001E00000
0001E00000
0001E00000
0001E00000
0001E00000
ENDCHAR
STARTCHAR 2565
ENCODING 9573
SWIDTH 531 0
DWIDTH 34 0
BBX 34 34 0 -17
BITMAP
FFFFFFFFC0
FFFFFFFFC0
FFFFFFFFC0
FFFFFFFFC0
001E1E0000
001E1E0000
001E1E0000
001E1E0000
001E1E0000
001E1E0000
001E1E0000
001E1E0000
001E1E0000
001E1E0000
001E1E0000
001E1E0000
001E1E0000
001E1E0000
001E1E0000
001E1E0000
001E1E0000
001E1E0000
001E1E0000
001E1E0000
001E1E0000
001E1E0000
001E1E0000
001E1E0000
001E1E0000
001E1E0000
001E1E0000
001E1E0000
001E1E0000
001E1E0000
ENDCHAR
STARTCHAR 2566
ENCODING 9574
SWIDTH 531 0
DWIDTH 34 0
BBX 34 42 0 -17
BITMAP
FFFFFFFFC0
FFFFFFFFC0
FFFFFFFFC0
FFFFFFFFC0
0000000000
0000000000
0000000000
0000000000
FFFE1FFFC0
FFFE1FFFC0
FFFE1FFFC0
FFFE1FFFC0
001E1E0000
001E1E0000
001E1E0000
001E1E0000
001E1E0000
001E1E0000
001E1E0000
001E1E0000
001E1E0000
001E1E0000
001E1E0000
001E1E0000
001E1E0000
001E1E0000
001E1E0000
001E1E0000
001E1E0000
001E1E0000
001E1E0000
001E1E0000
001E1E0000
001E1E0000
001E1E0000
001E1E0000
001E1E0000
001E1E0000
001E1E0000
001E1E0000
001E1E0000
001E1E0000
ENDCHAR
STARTCHAR 2567
ENCODING 9575
SWIDTH 531 0
DWIDTH 34 0
BBX 34 38 0 13
BITMAP
0001E00000
0001E00000
0001E00000
0001E00000
0001E00000
0001E00000
0001E00000
0001E00000
0001E00000
0001E00000
0001E00000
0001E00000
0001E00000
0001E00000
0001E00000
0001E00000
0001E00000
0001E00000
0001E00000
0001E00000
0001E00000
0001E00000
0001E00000
0001E00000
0001E00000
0001E00000
FFFFFFFFC0
FFFFFFFFC0
FFFFFFFFC0
FFFFFFFFC0
0000000000
0000000000
0000000000
0000000000
FFFFFFFFC0
FFFFFFFFC0
FFFFFFFFC0
FFFFFFFFC0
ENDCHAR
STARTCHAR 2568
ENCODING 9576
SWIDTH 531 0
DWIDTH 34 0
BBX 34 38 0 13
BITMAP
001E1E0000
001E1E0000
001E1E0000
001E1E0000
001E1E0000
001E1E0000
001E1E0000
001E1E0000
001E1E0000
001E1E0000
001E1E0000
001E1E0000
001E1E0000
001E1E0000
001E1E0000
001E1E0000
001E1E0000
001E1E0000
001E1E0000
001E1E0000
001E1E0000
001E1E0000
001E1E0000
001E1E0000
001E1E0000
001E1E0000
001E1E0000
001E1E0000
001E1E0000
001E1E0000
001E1E0000
001E1E0000
001E1E0000
001E1E0000
FFFFFFFFC0
FFFFFFFFC0
FFFFFFFFC0
FFFFFFFFC0
ENDCHAR
STARTCHAR 2569
ENCODING 9577
SWIDTH 531 0
DWIDTH 34 0
BBX 34 38 0 13
BITMAP
001E1E0000
001E1E0000
001E1E0000
001E1E0000
001E1E0000
001E1E0000
001E1E0000
001E1E0000
001E1E0000
001E1E0000
001E1E0000
001E1E0000
001E1E0000
001E1E0000
001E1E0000
001E1E0000
001E1E0000
001E1E0000
001E1E0000
001E1E0000
001E1E0000
001E1E0000
001E1E0000
001E1E0000
001E1E0000
001E1E0000
FFFE1FFFC0
FFFE1FFFC0
FFFE1FFFC0
FFFE1FFFC0
0000000000
0000000000
0000000000
0000000000
FFFFFFFFC0
FFFFFFFFC0
FFFFFFFFC0
FFFFFFFFC0
ENDCHAR
STARTCHAR 256A
ENCODING 9578
SWIDTH 531 0
DWIDTH 34 0
BBX 34 68 0 -17
BITMAP
0001E00000
0001E00000
0001E00000
0001E00000
0001E00000
0001E00000
0001E00000
0001E00000
0001E00000
0001E00000
0001E00000
0001E00000
0001E00000
0001E00000
0001E00000
0001E00000
0001E00000
0001E00000
0001E00000
0001E00000
0001E00000
0001E00000
0001E00000
0001E00000
0001E00000
FFFFFFFFC0
FFFFFFFFC0
FFFFFFFFC0
FFFFFFFFC0
FFFFFFFFC0
0001E00000
0001E00000
0001E00000
0001E00000
FFFFFFFFC0
FFFFFFFFC0
FFFFFFFFC0
FFFFFFFFC0
0001E00000
0001E00000
0001E00000
0001E00000
0001E00000
0001E00000
0001E00000
0001E00000
0001E00000
0001E00000
0001E00000
0001E00000
0001E00000
0001E00000
0001E00000
0001E00000
0001E00000
0001E00000
0001E00000
0001E00000
0001E00000
0001E00000
0001E00000
0001E00000
0001E00000
0001E00000
0001E00000
0001E00000
0001E00000
0001E00000
ENDCHAR
STARTCHAR 256B
ENCODING 9579
SWIDTH 531 0
DWIDTH 34 0
BBX 34 68 0 -17
BITMAP
001E1E0000
001E1E0000
001E1E0000
001E1E0000
001E1E0000
001E1E0000
001E1E0000
001E1E0000
001E1E0000
001E1E0000
001E1E0000
001E1E0000
001E1E0000
001E1E0000
001E1E0000
001E1E0000
001E1E0000
001E1E0000
001E1E0000
001E1E0000
001E1E0000
001E1E0000
001E1E0000
001E1E0000
001E1E0000
001E1E0000
001E1E0000
001E1E0000
001E1E0000
001E1E0000
001E1E0000
001E1E0000
001E1E0000
001E1E0000
FFFFFFFFC0
FFFFFFFFC0
FFFFFFFFC0
FFFFFFFFC0
001E1E0000
001E1E0000
001E1E0000
001E1E0000
001E1E0000
001E1E0000
001E1E0000
001E1E0000
001E1E0000
001E1E0000
001E1E0000
001E1E0000
001E1E0000
001E1E0000
001E1E0000
001E1E0000
001E1E0000
001E1E0000
001E1E0000
001E1E0000
001E1E0000
001E1E0000
001E1E0000
001E1E0000
001E1E0000
001E1E0000
001E1E0000
001E1E0000
001E1E0000
001E1E0000
ENDCHAR
STARTCHAR 256C
ENCODING 9580
SWIDTH 531 0
DWIDTH 34 0
BBX 34 68 0 -17
BITMAP
001E1E0000
001E1E0000
001E1E0000
001E1E0000
001E1E0000
001E1E0000
001E1E0000
001E1E0000
001E1E0000
001E1E0000
001E1E0000
001E1E0000
001E1E0000
001E1E0000
001E1E0000
001E1E0000
001E1E0000
001E1E0000
001E1E0000
001E1E0000
001E1E0000
001E1E0000
001E1E0000
001E1E0000
001E1E0000
001E1E0000
FFFE1FFFC0
FFFE1FFFC0
FFFE1FFFC0
FFFE1FFFC0
0000000000
0000000000
0000000000
0000000000
FFFE1FFFC0
FFFE1FFFC0
FFFE1FFFC0
FFFE1FFFC0
001E1E0000
001E1E0000
001E1E0000
001E1E0000
001E1E0000
001E1E0000
001E1E0000
001E1E0000
001E1E0000
001E1E0000
001E1E0000
001E1E0000
001E1E0000
001E1E0000
001E1E0000
001E1E0000
001E1E0000
001E1E0000
001E1E0000
001E1E0000
001E1E0000
001E1E0000
001E1E0000
001E1E0000
001E1E0000
001E1E0000
001E1E0000
001E1E0000
001E1E0000
001E1E0000
ENDCHAR
STARTCHAR 2580
ENCODING 9600
SWIDTH 531 0
DWIDTH 34 0
BBX 34 34 0 17
BITMAP
FFFFFFFFC0
FFFFFFFFC0
FFFFFFFFC0
FFFFFFFFC0
FFFFFFFFC0
FFFFFFFFC0
FFFFFFFFC0
FFFFFFFFC0
FFFFFFFFC0
FFFFFFFFC0
FFFFFFFFC0
FFFFFFFFC0
FFFFFFFFC0
FFFFFFFFC0
FFFFFFFFC0
FFFFFFFFC0
FFFFFFFFC0
FFFFFFFFC0
FFFFFFFFC0
FFFFFFFFC0
FFFFFFFFC0
FFFFFFFFC0
FFFFFFFFC0
FFFFFFFFC0
FFFFFFFFC0
FFFFFFFFC0
FFFFFFFFC0
FFFFFFFFC0
FFFFFFFFC0
FFFFFFFFC0
FFFFFFFFC0
FFFFFFFFC0
FFFFFFFFC0
FFFFFFFFC0
ENDCHAR
STARTCHAR 2584
ENCODING 9604
SWIDTH 531 0
DWIDTH 34 0
BBX 34 34 0 -17
BITMAP
FFFFFFFFC0
FFFFFFFFC0
FFFFFFFFC0
FFFFFFFFC0
FFFFFFFFC0
FFFFFFFFC0
FFFFFFFFC0
FFFFFFFFC0
FFFFFFFFC0
FFFFFFFFC0
FFFFFFFFC0
FFFFFFFFC0
FFFFFFFFC0
FFFFFFFFC0
FFFFFFFFC0
FFFFFFFFC0
FFFFFFFFC0
FFFFFFFFC0
FFFFFFFFC0
FFFFFFFFC0
FFFFFFFFC0
FFFFFFFFC0
FFFFFFFFC0
FFFFFFFFC0
FFFFFFFFC0
FFFFFFFFC0
FFFFFFFFC0
FFFFFFFFC0
FFFFFFFFC0
FFFFFFFFC0
FFFFFFFFC0
FFFFFFFFC0
FFFFFFFFC0
FFFFFFFFC0
ENDCHAR
STARTCHAR 2588
ENCODING 9608
SWIDTH 531 0
DWIDTH 34 0
BBX 34 68 0 -17
BITMAP
FFFFFFFFC0
FFFFFFFFC0
FFFFFFFFC0
FFFFFFFFC0
FFFFFFFFC0
FFFFFFFFC0
FFFFFFFFC0
FFFFFFFFC0
FFFFFFFFC0
FFFFFFFFC0
FFFFFFFFC0
FFFFFFFFC0
FFFFFFFFC0
FFFFFFFFC0
FFFFFFFFC0
FFFFFFFFC0
FFFFFFFFC0
FFFFFFFFC0
FFFFFFFFC0
FFFFFFFFC0
FFFFFFFFC0
FFFFFFFFC0
FFFFFFFFC0
FFFFFFFFC0
FFFFFFFFC0
FFFFFFFFC0
FFFFFFFFC0
FFFFFFFFC0
FFFFFFFFC0
FFFFFFFFC0
FFFFFFFFC0
FFFFFFFFC0
FFFFFFFFC0
FFFFFFFFC0
FFFFFFFFC0
FFFFFFFFC0
FFFFFFFFC0
FFFFFFFFC0
FFFFFFFFC0
FFFFFFFFC0
FFFFFFFFC0
FFFFFFFFC0
FFFFFFFFC0
FFFFFFFFC0
FFFFFFFFC0
FFFFFFFFC0
FFFFFFFFC0
FFFFFFFFC0
FFFFFFFFC0
FFFFFFFFC0
FFFFFFFFC0
FFFFFFFFC0
FFFFFFFFC0
FFFFFFFFC0
FFFFFFFFC0
FFFFFFFFC0
FFFFFFFFC0
FFFFFFFFC0
FFFFFFFFC0
FFFFFFFFC0
FFFFFFFFC0
FFFFFFFFC0
FFFFFFFFC0
FFFFFFFFC0
FFFFFFFFC0
FFFFFFFFC0
FFFFFFFFC0
FFFFFFFFC0
ENDCHAR
STARTCHAR 258C
ENCODING 9612
SWIDTH 531 0
DWIDTH 34 0
BBX 17 68 0 -17
BITMAP
FFFF80
FFFF80
FFFF80
FFFF80
FFFF80
FFFF80
FFFF80
FFFF80
FFFF80
FFFF80
FFFF80
FFFF80
FFFF80
FFFF80
FFFF80
FFFF80
FFFF80
FFFF80
FFFF80
FFFF80
FFFF80
FFFF80
FFFF80
FFFF80
FFFF80
FFFF80
FFFF80
FFFF80
FFFF80
FFFF80
FFFF80
FFFF80
FFFF80
FFFF80
FFFF80
FFFF80
FFFF80
FFFF80
FFFF80
FFFF80
FFFF80
FFFF80
FFFF80
FFFF80
FFFF80
FFFF80
FFFF80
FFFF80
FFFF80
FFFF80
FFFF80
FFFF80
FFFF80
FFFF80
FFFF80
FFFF80
FFFF80
FFFF80
FFFF80
FFFF80
FFFF80
FFFF80
FFFF80
FFFF80
FFFF80
FFFF80
FFFF80
FFFF80
ENDCHAR
STARTCHAR 2590
ENCODING 9616
SWIDTH 531 0
DWIDTH 34 0
BBX 17 68 17 -17
BITMAP
FFFF80
FFFF80
FFFF80
FFFF80
FFFF80
FFFF80
FFFF80
FFFF80
FFFF80
FFFF80
FFFF80
FFFF80
FFFF80
FFFF80
FFFF80
FFFF80
FFFF80
FFFF80
FFFF80
FFFF80
FFFF80
FFFF80
FFFF80
FFFF80
FFFF80
FFFF80
FFFF80
FFFF80
FFFF80
FFFF80
FFFF80
FFFF80
FFFF80
FFFF80
FFFF80
FFFF80
FFFF80
FFFF80
FFFF80
FFFF80
FFFF80
FFFF80
FFFF80
FFFF80
FFFF80
FFFF80
FFFF80
FFFF80
FFFF80
FFFF80
FFFF80
FFFF80
FFFF80
FFFF80
FFFF80
FFFF80
FFFF80
FFFF80
FFFF80
FFFF80
FFFF80
FFFF80
FFFF80
FFFF80
FFFF80
FFFF80
FFFF80
FFFF80
ENDCHAR
STARTCHAR 2591
ENCODING 9617
SWIDTH 531 0
DWIDTH 34 0
BBX 30 68 2 -17
BITMAP
0078003C
0078003C
0078003C
0078003C
F0007800
F0007800
F0007800
F0007800
0078003C
0078003C
0078003C
0078003C
0078003C
F0007800
F0007800
F0007800
F0007800
0078003C
0078003C
0078003C
0078003C
F0007800
F0007800
F0007800
F0007800
0078003C
0078003C
0078003C
0078003C
0078003C
F0007800
F0007800
F0007800
F0007800
0078003C
0078003C
0078003C
0078003C
F0007800
F0007800
F0007800
F0007800
0078003C
0078003C
0078003C
0078003C
0078003C
F0007800
F0007800
F0007800
F0007800
0078003C
0078003C
0078003C
0078003C
F0007800
F0007800
F0007800
F0007800
0078003C
0078003C
0078003C
0078003C
0078003C
F0007800
F0007800
F0007800
F0007800
ENDCHAR
STARTCHAR 2592
ENCODING 9618
SWIDTH 531 0
DWIDTH 34 0
BBX 34 68 0 -17
BITMAP
0F8787C3C0
0F8787C3C0
0F8787C3C0
0F8787C3C0
F078783C00
F078783C00
F078783C00
F078783C00
0F8787C3C0
0F8787C3C0
0F8787C3C0
0F8787C3C0
0F8787C3C0
F078783C00
F078783C00
F078783C00
F078783C00
0F8787C3C0
0F8787C3C0
0F8787C3C0
0F8787C3C0
F078783C00
F078783C00
F078783C00
F078783C00
0F8787C3C0
0F8787C3C0
0F8787C3C0
0F8787C3C0
0F8787C3C0
F078783C00
F078783C00
F078783C00
F078783C00
0F8787C3C0
0F8787C3C0
0F8787C3C0
0F8787C3C0
F078783C00
F078783C00
F078783C00
F078783C00
0F8787C3C0
0F8787C3C0
0F8787C3C0
0F8787C3C0
0F8787C3C0
F078783C00
F078783C00
F078783C00
F078783C00
0F8787C3C0
0F8787C3C0
0F8787C3C0
0F8787C3C0
F078783C00
F078783C00
F078783C00
F078783C00
0F8787C3C0
0F8787C3C0
0F8787C3C0
0F8787C3C0
0F8787C3C0
F078783C00
F078783C00
F078783C00
F078783C00
ENDCHAR
STARTCHAR 2593
ENCODING 9619
SWIDTH 531 0
DWIDTH 34 0
BBX 34 68 0 -17
BITMAP
FC1F83F000
FC1F83F000
FC1F83F000
FC1F83F000
03F87F0FC0
03F87F0FC0
03F87F0FC0
03F87F0FC0
FC1F83F000
FC1F83F000
FC1F83F000
FC1F83F000
FC1F83F000
03F87F0FC0
03F87F0FC0
03F87F0FC0
03F87F0FC0
FC1F83F000
FC1F83F000
FC1F83F000
FC1F83F000
03F87F0FC0
03F87F0FC0
03F87F0FC0
03F87F0FC0
FC1F83F000
FC1F83F000
FC1F83F000
FC1F83F000
FC1F83F000
03F87F0FC0
03F87F0FC0
03F87F0FC0
03F87F0FC0
FC1F83F000
FC1F83F000
FC1F83F000
FC1F83F000
03F87F0FC0
03F87F0FC0
03F87F0FC0
03F87F0FC0
FC1F83F000
FC1F83F000
FC1F83F000
FC1F83F000
FC1F83F000
03F87F0FC0
03F87F0FC0
03F87F0FC0
03F87F0FC0
FC1F83F000
FC1F83F000
FC1F83F000
FC1F83F000
03F87F0FC0
03F87F0FC0
03F87F0FC0
03F87F0FC0
FC1F83F000
FC1F83F000
FC1F83F000
FC1F83F000
FC1F83F000
03F87F0FC0
03F87F0FC0
03F87F0FC0
03F87F0FC0
ENDCHAR
STARTCHAR 25A0
ENCODING 9632
SWIDTH 531 0
DWIDTH 34 0
BBX 17 30 9 4
BITMAP
FFFF80
FFFF80
FFFF80
FFFF80
FFFF80
FFFF80
FFFF80
FFFF80
FFFF80
FFFF80
FFFF80
FFFF80
FFFF80
FFFF80
FFFF80
FFFF80
FFFF80
FFFF80
FFFF80
FFFF80
FFFF80
FFFF80
FFFF80
FFFF80
FFFF80
FFFF80
FFFF80
FFFF80
FFFF80
FFFF80
ENDCHAR
STARTCHAR 25AC
ENCODING 9644
SWIDTH 531 0
DWIDTH 34 0
BBX 26 17 4 0
BITMAP
FFFFFFC0
FFFFFFC0
FFFFFFC0
FFFFFFC0
FFFFFFC0
FFFFFFC0
FFFFFFC0
FFFFFFC0
FFFFFFC0
FFFFFFC0
FFFFFFC0
FFFFFFC0
FFFFFFC0
FFFFFFC0
FFFFFFC0
FFFFFFC0
FFFFFFC0
ENDCHAR
STARTCHAR 25B2
ENCODING 9650
SWIDTH 531 0
DWIDTH 34 0
BBX 30 30 2 9
BITMAP
00078000
00078000
00078000
00078000
00078000
001FE000
001FE000
001FE000
001FE000
007FF800
007FF800
007FF800
007FF800
01FFFF00
01FFFF00
01FFFF00
01FFFF00
0FFFFFC0
0FFFFFC0
0FFFFFC0
0FFFFFC0
0FFFFFC0
3FFFFFF0
3FFFFFF0
3FFFFFF0
3FFFFFF0
FFFFFFFC
FFFFFFFC
FFFFFFFC
FFFFFFFC
ENDCHAR
STARTCHAR 25BA
ENCODING 9658
SWIDTH 531 0
DWIDTH 34 0
BBX 26 47 4 0
BITMAP
F0000000
F0000000
F0000000
F0000000
FF800000
FF800000
FF800000
FF800000
FF800000
FFF80000
FFF80000
FFF80000
FFF80000
FFFF8000
FFFF8000
FFFF8000
FFFF8000
FFFFF800
FFFFF800
FFFFF800
FFFFF800
FFFFFFC0
FFFFFFC0
FFFFFFC0
FFFFFFC0
FFFFFFC0
FFFFF800
FFFFF800
FFFFF800
FFFFF800
FFFF8000
FFFF8000
FFFF8000
FFFF8000
FFF80000
FFF80000
FFF80000
FFF80000
FF800000
FF800000
FF800000
FF800000
FF800000
F0000000
F0000000
F0000000
F0000000
ENDCHAR
STARTCHAR 25BC
ENCODING 9660
SWIDTH 531 0
DWIDTH 34 0
BBX 30 30 2 8
BITMAP
FFFFFFFC
FFFFFFFC
FFFFFFFC
FFFFFFFC
3FFFFFF0
3FFFFFF0
3FFFFFF0
3FFFFFF0
0FFFFFC0
0FFFFFC0
0FFFFFC0
0FFFFFC0
0FFFFFC0
01FFFF00
01FFFF00
01FFFF00
01FFFF00
007FF800
007FF800
007FF800
007FF800
001FE000
001FE000
001FE000
001FE000
00078000
00078000
00078000
00078000
00078000
ENDCHAR
STARTCHAR 25C4
ENCODING 9668
SWIDTH 531 0
DWIDTH 34 0
BBX 26 47 4 0
BITMAP
000003C0
000003C0
000003C0
000003C0
00007FC0
00007FC0
00007FC0
00007FC0
00007FC0
0007FFC0
0007FFC0
0007FFC0
0007FFC0
007FFFC0
007FFFC0
007FFFC0
007FFFC0
07FFFFC0
07FFFFC0
07FFFFC0
07FFFFC0
FFFFFFC0
FFFFFFC0
FFFFFFC0
FFFFFFC0
FFFFFFC0
07FFFFC0
07FFFFC0
07FFFFC0
07FFFFC0
007FFFC0
007FFFC0
007FFFC0
007FFFC0
0007FFC0
0007FFC0
0007FFC0
0007FFC0
00007FC0
00007FC0
00007FC0
00007FC0
00007FC0
000003C0
000003C0
000003C0
000003C0
ENDCHAR
STARTCHAR 25CB
ENCODING 9675
SWIDTH 531 0
DWIDTH 34 0
BBX 25 26 4 4
BITMAP
03FFE000
03FFE000
03FFE000
03FFE000
3F007E00
3F007E00
3F007E00
3F007E00
F0000780
F0000780
F0000780
F0000780
F0000780
F0000780
F0000780
F0000780
F0000780
3F007E00
3F007E00
3F007E00
3F007E00
3F007E00
03FFE000
03FFE000
03FFE000
03FFE000
ENDCHAR
STARTCHAR 25D8
ENCODING 9688
SWIDTH 531 0
DWIDTH 34 0
BBX 34 68 0 -17
BITMAP
FFFFFFFFC0
FFFFFFFFC0
FFFFFFFFC0
FFFFFFFFC0
FFFFFFFFC0
FFFFFFFFC0
FFFFFFFFC0
FFFFFFFFC0
FFFFFFFFC0
FFFFFFFFC0
FFFFFFFFC0
FFFFFFFFC0
FFFFFFFFC0
FFFFFFFFC0
FFFFFFFFC0
FFFFFFFFC0
FFFFFFFFC0
FFFFFFFFC0
FFFFFFFFC0
FFFFFFFFC0
FFFFFFFFC0
FFFFFFFFC0
FFFFFFFFC0
FFFFFFFFC0
FFFFFFFFC0
FFFFFFFFC0
FFE001FFC0
FFE001FFC0
FFE001FFC0
FFE001FFC0
FF80007FC0
FF80007FC0
FF80007FC0
FF80007FC0
FF80007FC0
FF80007FC0
FF80007FC0
FF80007FC0
FFE001FFC0
FFE001FFC0
FFE001FFC0
FFE001FFC0
FFFFFFFFC0
FFFFFFFFC0
FFFFFFFFC0
FFFFFFFFC0
FFFFFFFFC0
FFFFFFFFC0
FFFFFFFFC0
FFFFFFFFC0
FFFFFFFFC0
FFFFFFFFC0
FFFFFFFFC0
FFFFFFFFC0
FFFFFFFFC0
FFFFFFFFC0
FFFFFFFFC0
FFFFFFFFC0
FFFFFFFFC0
FFFFFFFFC0
FFFFFFFFC0
FFFFFFFFC0
FFFFFFFFC0
FFFFFFFFC0
FFFFFFFFC0
FFFFFFFFC0
FFFFFFFFC0
FFFFFFFFC0
ENDCHAR
STARTCHAR 25D9
ENCODING 9689
SWIDTH 531 0
DWIDTH 34 0
BBX 34 68 0 -17
BITMAP
FFFFFFFFC0
FFFFFFFFC0
FFFFFFFFC0
FFFFFFFFC0
FFFFFFFFC0
FFFFFFFFC0
FFFFFFFFC0
FFFFFFFFC0
FFFFFFFFC0
FFFFFFFFC0
FFFFFFFFC0
FFFFFFFFC0
FFFFFFFFC0
FFFFFFFFC0
FFFFFFFFC0
FFFFFFFFC0
FFFFFFFFC0
FFFFFFFFC0
FFFFFFFFC0
FFFFFFFFC0
FFFFFFFFC0
FFE001FFC0
FFE001FFC0
FFE001FFC0
FFE001FFC0
FC1FFE0FC0
FC1FFE0FC0
FC1FFE0FC0
FC1FFE0FC0
FC1FFE0FC0
F07FFFC3C0
F07FFFC3C0
F07FFFC3C0
F07FFFC3C0
F07FFFC3C0
F07FFFC3C0
F07FFFC3C0
F07FFFC3C0
FC1FFE0FC0
FC1FFE0FC0
FC1FFE0FC0
FC1FFE0FC0
FFE001FFC0
FFE001FFC0
FFE001FFC0
FFE001FFC0
FFE001FFC0
FFFFFFFFC0
FFFFFFFFC0
FFFFFFFFC0
FFFFFFFFC0
FFFFFFFFC0
FFFFFFFFC0
FFFFFFFFC0
FFFFFFFFC0
FFFFFFFFC0
FFFFFFFFC0
FFFFFFFFC0
FFFFFFFFC0
FFFFFFFFC0
FFFFFFFFC0
FFFFFFFFC0
FFFFFFFFC0
FFFFFFFFC0
FFFFFFFFC0
FFFFFFFFC0
FFFFFFFFC0
FFFFFFFFC0
ENDCHAR
STARTCHAR 263A
ENCODING 9786
SWIDTH 531 0
DWIDTH 34 0
BBX 25 47 4 0
BITMAP
3FFFFE00
3FFFFE00
3FFFFE00
3FFFFE00
FC001F80
FC001F80
FC001F80
FC001F80
FC001F80
F0000780
F0000780
F0000780
F0000780
F3C1E780
F3C1E780
F3C1E780
F3C1E780
F0000780
F0000780
F0000780
F0000780
F0000780
F0000780
F0000780
F0000780
F0000780
F0000780
F0000780
F0000780
F0000780
F3FFE780
F3FFE780
F3FFE780
F3FFE780
F03E0780
F03E0780
F03E0780
F03E0780
FC001F80
FC001F80
FC001F80
FC001F80
FC001F80
3FFFFE00
3FFFFE00
3FFFFE00
3FFFFE00
ENDCHAR
STARTCHAR 263B
ENCODING 9787
SWIDTH 531 0
DWIDTH 34 0
BBX 25 47 4 0
BITMAP
0FFFF800
0FFFF800
0FFFF800
0FFFF800
FFFFFF80
FFFFFF80
FFFFFF80
FFFFFF80
FFFFFF80
FFFFFF80
FFFFFF80
FFFFFF80
FFFFFF80
FC1E1F80
FC1E1F80
FC1E1F80
FC1E1F80
FFFFFF80
FFFFFF80
FFFFFF80
FFFFFF80
FFFFFF80
FFFFFF80
FFFFFF80
FFFFFF80
FFFFFF80
FFFFFF80
FFFFFF80
FFFFFF80
FFFFFF80
FC001F80
FC001F80
FC001F80
FC001F80
FFE1FF80
FFE1FF80
FFE1FF80
FFE1FF80
FFFFFF80
FFFFFF80
FFFFFF80
FFFFFF80
FFFFFF80
0FFFF800
0FFFF800
0FFFF800
0FFFF800
ENDCHAR
STARTCHAR 263C
ENCODING 9788
SWIDTH 531 0
DWIDTH 34 0
BBX 25 47 4 0
BITMAP
001E0000
001E0000
001E0000
001E0000
001E0000
001E0000
001E0000
001E0000
001E0000
001E0000
001E0000
001E0000
001E0000
FC1E1F80
FC1E1F80
FC1E1F80
FC1E1F80
00FF8000
00FF8000
00FF8000
00FF8000
FFE1FF80
FFE1FF80
FFE1FF80
FFE1FF80
FFE1FF80
00FF8000
00FF8000
00FF8000
00FF8000
FC1E1F80
FC1E1F80
FC1E1F80
FC1E1F80
001E0000
001E0000
001E0000
001E0000
001E0000
001E0000
001E0000
001E0000
001E0000
001E0000
001E0000
001E0000
001E0000
ENDCHAR
STARTCHAR 2640
ENCODING 9792
SWIDTH 531 0
DWIDTH 34 0
BBX 25 47 4 0
BITMAP
03FFE000
03FFE000
03FFE000
03FFE000
3F007E00
3F007E00
3F007E00
3F007E00
F0000780
F0000780
F0000780
F0000780
F0000780
F0000780
F0000780
F0000780
F0000780
3F007E00
3F007E00
3F007E00
3F007E00
3F007E00
03FFE000
03FFE000
03FFE000
03FFE000
003E0000
003E0000
003E0000
003E0000
003E0000
003E0000
003E0000
003E0000
0FFFF800
0FFFF800
0FFFF800
0FFFF800
003E0000
003E0000
003E0000
003E0000
003E0000
003E0000
003E0000
003E0000
003E0000
ENDCHAR
STARTCHAR 2642
ENCODING 9794
SWIDTH 531 0
DWIDTH 34 0
BBX 23 47 4 0
BITMAP
00FFF8
00FFF8
00FFF8
00FFF8
00079E
00079E
00079E
00079E
001E00
001E00
001E00
001E00
001E00
00F800
00F800
00F800
00F800
03E000
03E000
03E000
03E000
03E000
0FFF80
0FFF80
0FFF80
0FFF80
3F01F8
3F01F8
3F01F8
3F01F8
F0001E
F0001E
F0001E
F0001E
F0001E
F0001E
F0001E
F0001E
F0001E
3F01F8
3F01F8
3F01F8
3F01F8
03FF80
03FF80
03FF80
03FF80
ENDCHAR
STARTCHAR 2660
ENCODING 9824
SWIDTH 531 0
DWIDTH 34 0
BBX 26 47 4 0
BITMAP
001E0000
001E0000
001E0000
001E0000
007F8000
007F8000
007F8000
007F8000
01FFF000
01FFF000
01FFF000
01FFF000
01FFF000
07FFFC00
07FFFC00
07FFFC00
07FFFC00
1FFFFF00
1FFFFF00
1FFFFF00
1FFFFF00
FFFFFFC0
FFFFFFC0
FFFFFFC0
FFFFFFC0
FFFFFFC0
FFFFFFC0
FFFFFFC0
FFFFFFC0
FFFFFFC0
1FFFFF00
1FFFFF00
1FFFFF00
1FFFFF00
001E0000
001E0000
001E0000
001E0000
001E0000
001E0000
001E0000
001E0000
001E0000
01FFF000
01FFF000
01FFF000
01FFF000
ENDCHAR
STARTCHAR 2663
ENCODING 9827
SWIDTH 531 0
DWIDTH 34 0
BBX 30 47 2 0
BITMAP
001FE000
001FE000
001FE000
001FE000
007FF800
007FF800
007FF800
007FF800
007FF800
007FF800
007FF800
007FF800
007FF800
001FE000
001FE000
001FE000
001FE000
3F8787F0
3F8787F0
3F8787F0
3F8787F0
FFF87FFC
FFF87FFC
FFF87FFC
FFF87FFC
FFF87FFC
FFF87FFC
FFF87FFC
FFF87FFC
FFF87FFC
3F8787F0
3F8787F0
3F8787F0
3F8787F0
001FE000
001FE000
001FE000
001FE000
001FE000
001FE000
001FE000
001FE000
001FE000
007FF800
007FF800
007FF800
007FF800
ENDCHAR
STARTCHAR 2665
ENCODING 9829
SWIDTH 531 0
DWIDTH 34 0
BBX 26 43 4 0
BITMAP
07E1FC00
07E1FC00
07E1FC00
07E1FC00
07E1FC00
1FFFFF00
1FFFFF00
1FFFFF00
1FFFFF00
FFFFFFC0
FFFFFFC0
FFFFFFC0
FFFFFFC0
FFFFFFC0
FFFFFFC0
FFFFFFC0
FFFFFFC0
FFFFFFC0
FFFFFFC0
FFFFFFC0
FFFFFFC0
FFFFFFC0
1FFFFF00
1FFFFF00
1FFFFF00
1FFFFF00
07FFFC00
07FFFC00
07FFFC00
07FFFC00
01FFF000
01FFF000
01FFF000
01FFF000
007F8000
007F8000
007F8000
007F8000
007F8000
001E0000
001E0000
001E0000
001E0000
ENDCHAR
STARTCHAR 2666
ENCODING 9830
SWIDTH 531 0
DWIDTH 34 0
BBX 26 38 4 4
BITMAP
001E0000
001E0000
001E0000
001E0000
007F8000
007F8000
007F8000
007F8000
07FFFC00
07FFFC00
07FFFC00
07FFFC00
1FFFFF00
1FFFFF00
1FFFFF00
1FFFFF00
1FFFFF00
FFFFFFC0
FFFFFFC0
FFFFFFC0
FFFFFFC0
1FFFFF00
1FFFFF00
1FFFFF00
1FFFFF00
07FFFC00
07FFFC00
07FFFC00
07FFFC00
007F8000
007F8000
007F8000
007F8000
007F8000
001E0000
001E0000
001E0000
001E0000
ENDCHAR
STARTCHAR 266A
ENCODING 9834
SWIDTH 531 0
DWIDTH 34 0
BBX 26 47 4 0
BITMAP
001FFC00
001FFC00
001FFC00
001FFC00
001E0F00
001E0F00
001E0F00
001E0F00
001E0F00
001E03C0
001E03C0
001E03C0
001E03C0
001E03C0
001E03C0
001E03C0
001E03C0
001E0F00
001E0F00
001E0F00
001E0F00
001E0000
001E0000
001E0000
001E0000
001E0000
001E0000
001E0000
001E0000
001E0000
3FFE0000
3FFE0000
3FFE0000
3FFE0000
FFFE0000
FFFE0000
FFFE0000
FFFE0000
FFFE0000
FFFE0000
FFFE0000
FFFE0000
FFFE0000
3FF80000
3FF80000
3FF80000
3FF80000
ENDCHAR
STARTCHAR 266B
ENCODING 9835
SWIDTH 531 0
DWIDTH 34 0
BBX 26 47 4 0
BITMAP
01FF8000
01FF8000
01FF8000
01FF8000
01E0FC00
01E0FC00
01E0FC00
01E0FC00
01E00C00
01E00F00
01E00F00
01E00F00
01E00F00
01E003C0
01E003C0
01E003C0
01E003C0
01E003C0
01E003C0
01E003C0
01E003C0
1FE003C0
1FE003C0
1FE003C0
1FE003C0
1FE003C0
FFE003C0
FFE003C0
FFE003C0
FFE003C0
FFE07FC0
FFE07FC0
FFE07FC0
FFE07FC0
1F80FFC0
1F80FFC0
1F80FFC0
1F80FFC0
0000FFC0
0000FFC0
0000FFC0
0000FFC0
0000FFC0
00007F00
00007F00
00007F00
00007F00
ENDCHAR
ENDFONT
